0
SECTION
2
HEADER
9
$INSUNITS
70
4
9
$ACADVER
1
AC1014
9
$HANDSEED
5
FFFF
0
ENDSEC
0
SECTION
2
TABLES
0
TABLE
2
VPORT
5
8
100
AcDbSymbolTable
0
ENDTAB
0
TABLE
2
LTYPE
5
5
100
AcDbSymbolTable
0
LTYPE
5
14
100
AcDbSymbolTableRecord
100
AcDbLinetypeTableRecord
2
BYBLOCK
70
0
0
LTYPE
5
15
100
AcDbSymbolTableRecord
100
AcDbLinetypeTableRecord
2
BYLAYER
70
0
0
ENDTAB
0
TABLE
2
LAYER
5
2
100
AcDbSymbolTable
70
2
0
LAYER
5
50
100
AcDbSymbolTableRecord
100
AcDbLayerTableRecord
2
0
70
0
6
CONTINUOUS
0
ENDTAB
0
TABLE
2
STYLE
5
3
100
AcDbSymbolTable
70
1
0
STYLE
5
11
100
AcDbSymbolTableRecord
100
AcDbTextStyleTableRecord
2
STANDARD
70
0
0
ENDTAB
0
TABLE
2
VIEW
5
6
100
AcDbSymbolTable
70
0
0
ENDTAB
0
TABLE
2
UCS
5
7
100
AcDbSymbolTable
70
0
0
ENDTAB
0
TABLE
2
APPID
5
9
100
AcDbSymbolTable
70
2
0
APPID
5
12
100
AcDbSymbolTableRecord
100
AcDbRegAppTableRecord
2
ACAD
70
0
0
ENDTAB
0
TABLE
2
DIMSTYLE
5
A
100
AcDbSymbolTable
70
1
0
ENDTAB
0
TABLE
2
BLOCK_RECORD
5
1
100
AcDbSymbolTable
70
1
0
BLOCK_RECORD
5
1F
100
AcDbSymbolTableRecord
100
AcDbBlockTableRecord
2
*MODEL_SPACE
0
BLOCK_RECORD
5
1B
100
AcDbSymbolTableRecord
100
AcDbBlockTableRecord
2
*PAPER_SPACE
0
ENDTAB
0
ENDSEC
0
SECTION
2
BLOCKS
0
BLOCK
5
20
100
AcDbEntity
100
AcDbBlockBegin
2
*MODEL_SPACE
0
ENDBLK
5
21
100
AcDbEntity
100
AcDbBlockEnd
0
BLOCK
5
1C
100
AcDbEntity
100
AcDbBlockBegin
2
*PAPER_SPACE
0
ENDBLK
5
1D
100
AcDbEntity
100
AcDbBlockEnd
0
ENDSEC
0
SECTION
2
ENTITIES
0
LWPOLYLINE
5
100
100
AcDbEntity
8
0
100
AcDbPolyline
90
52
70
1
43
0.0
10
-10.105328234436186
20
26.866307309543807
10
-10.105328234436186
20
34.866508047391022
10
-7.1053390851306375
20
34.866508047391022
10
-7.1053390851306375
20
42.866364275689619
10
-10.105328234436186
20
42.866364275689619
10
-10.105328234436186
20
48.866342574300717
10
-7.1053390851306375
20
48.866342574300717
10
-7.1053390851306375
20
54.866320872911871
10
-10.105328234436186
20
54.866320872911871
10
-10.105328234436186
20
60.866299171522968
10
-7.1053390851306375
20
60.866299171522968
10
-7.1053390851306375
20
68.866155399821565
10
-10.105328234436186
20
68.866155399821565
10
-10.105328234436186
20
76.866356137668816
10
-2.1051274965889744
20
76.866356137668816
10
-2.1051274965889744
20
73.866366988363239
10
5.8947287317096553
20
73.866366988363239
10
5.8947287317096553
20
76.866356137668816
10
11.894707030320752
20
76.866356137668816
10
11.894707030320752
20
73.866366988363239
10
17.894857583706155
20
73.866366988363239
10
17.894857583706155
20
76.866356137668816
10
23.894835882317281
20
76.866356137668816
10
23.894835882317281
20
73.866366988363239
10
31.895036620164493
20
73.866366988363239
10
31.895036620164493
20
76.866356137668816
10
39.894548338914511
20
76.866356137668816
10
39.894548338914511
20
68.866155399821565
10
36.894559189608962
20
68.866155399821565
10
36.894559189608962
20
60.866299171522968
10
39.894548338914511
20
60.866299171522968
10
39.894548338914511
20
54.866320872911871
10
36.894559189608962
20
54.866320872911871
10
36.894559189608962
20
48.866342574300717
10
39.894548338914511
20
48.866342574300717
10
39.894548338914511
20
42.866364275689619
10
36.894559189608962
20
42.866364275689619
10
36.894559189608962
20
34.866508047391022
10
39.894548338914511
20
34.866508047391022
10
39.894548338914511
20
26.866307309543807
10
31.895036620164493
20
26.866307309543807
10
31.895036620164493
20
29.866296458849355
10
23.894835882317281
20
29.866296458849355
10
23.894835882317281
20
26.866307309543807
10
17.894857583706155
20
26.866307309543807
10
17.894857583706155
20
29.866296458849355
10
11.894707030320752
20
29.866296458849355
10
11.894707030320752
20
26.866307309543807
10
5.8947287317096553
20
26.866307309543807
10
5.8947287317096553
20
29.866296458849355
10
-2.1051274965889744
20
29.866296458849355
10
-2.1051274965889744
20
26.866307309543807
0
CIRCLE
5
101
100
AcDbEntity
8
0
100
AcDbCircle
10
14.911542639697423
20
43.86629645884809
30
-5.8089354826752065e-07
40
1
210
0
220
4.7331654313260708e-30
230
1
0
CIRCLE
5
102
100
AcDbEntity
8
0
100
AcDbCircle
10
14.911542639697423
20
40.86629645884809
30
-5.8089354593648598e-07
40
1
210
0
220
4.7331654313260708e-30
230
1
0
CIRCLE
5
103
100
AcDbEntity
8
0
100
AcDbCircle
10
14.911542639697423
20
46.866296458848097
30
-5.8089355060072373e-07
40
1
210
0
220
4.7331654313260708e-30
230
1
0
CIRCLE
5
104
100
AcDbEntity
8
0
100
AcDbCircle
10
14.911542639697423
20
37.86629645884809
30
-5.808935571753257e-07
40
1
210
0
220
4.7331654313260708e-30
230
1
0
CIRCLE
5
105
100
AcDbEntity
8
0
100
AcDbCircle
10
14.911542639697423
20
43.866296458848105
30
0
40
1.0000000000000004
210
0
220
-7.0064923216240822e-46
230
1
0
CIRCLE
5
106
100
AcDbEntity
8
0
100
AcDbCircle
10
14.911542639697423
20
40.866296458848112
30
0
40
1.0000000000000004
210
0
220
-7.0064923216240822e-46
230
1
0
CIRCLE
5
107
100
AcDbEntity
8
0
100
AcDbCircle
10
14.911542639697423
20
46.866296458848112
30
0
40
1.0000000000000004
210
0
220
-7.0064923216240822e-46
230
1
0
CIRCLE
5
108
100
AcDbEntity
8
0
100
AcDbCircle
10
14.911542639697423
20
37.866296458848112
30
0
40
1.0000000000000004
210
0
220
-7.0064923216240822e-46
230
1
0
LWPOLYLINE
5
109
100
AcDbEntity
8
0
100
AcDbPolyline
90
52
70
1
43
0.0
10
-10.105328234436186
20
34.866508047391036
10
-10.105328234436186
20
26.866307309543821
10
-2.1051274965889744
20
26.866307309543824
10
-2.1051274965889744
20
29.866296458849373
10
5.8947287317096553
20
29.866296458849369
10
5.8947287317096553
20
26.866307309543821
10
11.894707030320752
20
26.866307309543824
10
11.894707030320752
20
29.866296458849373
10
17.894857583706155
20
29.866296458849369
10
17.894857583706155
20
26.866307309543821
10
23.894835882317281
20
26.866307309543824
10
23.894835882317281
20
29.866296458849373
10
31.895036620164493
20
29.866296458849369
10
31.895036620164493
20
26.866307309543821
10
39.894548338914511
20
26.866307309543824
10
39.894548338914511
20
34.866508047391036
10
36.894559189608962
20
34.866508047391044
10
36.894559189608962
20
42.866364275689648
10
39.894548338914511
20
42.866364275689648
10
39.894548338914511
20
48.866342574300745
10
36.894559189608962
20
48.866342574300745
10
36.894559189608962
20
54.866320872911899
10
39.894548338914511
20
54.866320872911906
10
39.894548338914511
20
60.866299171523004
10
36.894559189608962
20
60.866299171523004
10
36.894559189608962
20
68.866155399821608
10
39.894548338914511
20
68.866155399821608
10
39.894548338914511
20
76.866356137668845
10
31.895036620164493
20
76.866356137668845
10
31.895036620164493
20
73.866366988363268
10
23.894835882317281
20
73.866366988363268
10
23.894835882317281
20
76.866356137668845
10
17.894857583706155
20
76.866356137668845
10
17.894857583706155
20
73.866366988363268
10
11.894707030320752
20
73.866366988363268
10
11.894707030320752
20
76.866356137668845
10
5.8947287317096553
20
76.866356137668845
10
5.8947287317096553
20
73.866366988363268
10
-2.1051274965889744
20
73.866366988363268
10
-2.1051274965889744
20
76.866356137668845
10
-10.105328234436186
20
76.866356137668845
10
-10.105328234436186
20
68.866155399821608
10
-7.1053390851306375
20
68.866155399821608
10
-7.1053390851306375
20
60.866299171523004
10
-10.105328234436186
20
60.866299171522996
10
-10.105328234436186
20
54.866320872911899
10
-7.1053390851306375
20
54.866320872911899
10
-7.1053390851306375
20
48.866342574300745
10
-10.105328234436186
20
48.866342574300745
10
-10.105328234436186
20
42.866364275689648
10
-7.1053390851306375
20
42.866364275689648
10
-7.1053390851306375
20
34.866508047391036
0
ENDSEC
0
SECTION
2
OBJECTS
0
DICTIONARY
5
C
100
AcDbDictionary
3
ACAD_GROUP
350
D
3
ACAD_MLINESTYLE
350
17
0
DICTIONARY
5
D
100
AcDbDictionary
0
DICTIONARY
5
1A
330
C
100
AcDbDictionary
0
DICTIONARY
5
17
100
AcDbDictionary
0
ENDSEC
0
EOF
