0
SECTION
2
HEADER
9
$INSUNITS
70
4
9
$ACADVER
1
AC1014
9
$HANDSEED
5
FFFF
0
ENDSEC
0
SECTION
2
TABLES
0
TABLE
2
VPORT
5
8
100
AcDbSymbolTable
0
ENDTAB
0
TABLE
2
LTYPE
5
5
100
AcDbSymbolTable
0
LTYPE
5
14
100
AcDbSymbolTableRecord
100
AcDbLinetypeTableRecord
2
BYBLOCK
70
0
0
LTYPE
5
15
100
AcDbSymbolTableRecord
100
AcDbLinetypeTableRecord
2
BYLAYER
70
0
0
ENDTAB
0
TABLE
2
LAYER
5
2
100
AcDbSymbolTable
70
2
0
LAYER
5
50
100
AcDbSymbolTableRecord
100
AcDbLayerTableRecord
2
0
70
0
6
CONTINUOUS
0
ENDTAB
0
TABLE
2
STYLE
5
3
100
AcDbSymbolTable
70
1
0
STYLE
5
11
100
AcDbSymbolTableRecord
100
AcDbTextStyleTableRecord
2
STANDARD
70
0
0
ENDTAB
0
TABLE
2
VIEW
5
6
100
AcDbSymbolTable
70
0
0
ENDTAB
0
TABLE
2
UCS
5
7
100
AcDbSymbolTable
70
0
0
ENDTAB
0
TABLE
2
APPID
5
9
100
AcDbSymbolTable
70
2
0
APPID
5
12
100
AcDbSymbolTableRecord
100
AcDbRegAppTableRecord
2
ACAD
70
0
0
ENDTAB
0
TABLE
2
DIMSTYLE
5
A
100
AcDbSymbolTable
70
1
0
ENDTAB
0
TABLE
2
BLOCK_RECORD
5
1
100
AcDbSymbolTable
70
1
0
BLOCK_RECORD
5
1F
100
AcDbSymbolTableRecord
100
AcDbBlockTableRecord
2
*MODEL_SPACE
0
BLOCK_RECORD
5
1B
100
AcDbSymbolTableRecord
100
AcDbBlockTableRecord
2
*PAPER_SPACE
0
ENDTAB
0
ENDSEC
0
SECTION
2
BLOCKS
0
BLOCK
5
20
100
AcDbEntity
100
AcDbBlockBegin
2
*MODEL_SPACE
0
ENDBLK
5
21
100
AcDbEntity
100
AcDbBlockEnd
0
BLOCK
5
1C
100
AcDbEntity
100
AcDbBlockBegin
2
*PAPER_SPACE
0
ENDBLK
5
1D
100
AcDbEntity
100
AcDbBlockEnd
0
ENDSEC
0
SECTION
2
ENTITIES
0
LWPOLYLINE
5
100
100
AcDbEntity
8
0
100
AcDbPolyline
90
52
70
1
43
0.0
10
-2.1052996278378799
20
37.371586310628977
10
-10.105500365685099
20
37.371586310628977
10
-10.105500365685099
20
43.871792473823419
10
-7.1055112163795364
20
43.871792473823419
10
-7.1055112163795364
20
53.37198778632343
10
-10.105500365685099
20
53.37198778632343
10
-10.105500365685099
20
59.371966084934527
10
-7.1055112163795364
20
59.371966084934527
10
-7.1055112163795364
20
65.371944383545653
10
-10.105500365685099
20
65.371944383545653
10
-10.105500365685099
20
71.371922682156779
10
-7.1055112163795364
20
71.371922682156779
10
-7.1055112163795364
20
80.872117994656747
10
-10.105500365685099
20
80.872117994656747
10
-10.105500365685099
20
87.371635138753987
10
-2.1052996278378799
20
87.371635138753987
10
-2.1052996278378799
20
90.371624288059536
10
5.8949011100093411
20
90.371624288059536
10
5.8949011100093411
20
87.371635138753987
10
11.894879408620458
20
87.371635138753987
10
11.89487940862046
20
90.371624288059536
10
17.894857707231569
20
90.371624288059536
10
17.894857707231569
20
87.371635138753987
10
23.894836005842677
20
87.371635138753987
10
23.894836005842677
20
90.371624288059536
10
31.894347724592684
20
90.371624288059536
10
31.894347724592684
20
87.371635138753987
10
39.8945484624399
20
87.371635138753987
10
39.8945484624399
20
80.872117994656747
10
36.894559313134337
20
80.872117994656747
10
36.894559313134337
20
71.371922682156779
10
39.8945484624399
20
71.371922682156779
10
39.8945484624399
20
65.371944383545653
10
36.894559313134337
20
65.371944383545653
10
36.894559313134337
20
59.371966084934527
10
39.8945484624399
20
59.371966084934527
10
39.8945484624399
20
53.37198778632343
10
36.894559313134337
20
53.37198778632343
10
36.894559313134337
20
43.871792473823419
10
39.8945484624399
20
43.871792473823419
10
39.8945484624399
20
37.371586310628977
10
31.894347724592684
20
37.371586310628977
10
31.894347724592684
20
34.371597161323429
10
23.894836005842677
20
34.371597161323429
10
23.894836005842677
20
37.371586310628977
10
17.894857707231569
20
37.371586310628977
10
17.894857707231569
20
34.371597161323429
10
11.894879408620458
20
34.371597161323429
10
11.894879408620458
20
37.371586310628977
10
5.8949011100093411
20
37.371586310628977
10
5.8949011100093411
20
34.371597161323429
10
-2.1052996278378799
20
34.371597161323429
0
CIRCLE
5
101
100
AcDbEntity
8
0
100
AcDbCircle
10
14.911370508448517
20
56.371271813178865
30
-1.6952616083143468e-06
40
1
210
0
220
4.7331654313260708e-30
230
1
0
CIRCLE
5
102
100
AcDbEntity
8
0
100
AcDbCircle
10
14.911370508448517
20
53.371271813178858
30
-1.6952616072041238e-06
40
1
210
0
220
4.7331654313260708e-30
230
1
0
CIRCLE
5
103
100
AcDbEntity
8
0
100
AcDbCircle
10
14.911370508448517
20
59.371271813178865
30
-1.6952616088694583e-06
40
1
210
0
220
4.7331654313260708e-30
230
1
0
CIRCLE
5
104
100
AcDbEntity
8
0
100
AcDbCircle
10
14.911370508448517
20
50.371271813178858
30
-1.6952616066490123e-06
40
1
210
0
220
4.7331654313260708e-30
230
1
0
CIRCLE
5
105
100
AcDbEntity
8
0
100
AcDbCircle
10
14.911542763222819
20
56.3712718131789
30
8.8817841970012523e-15
40
1.0000000000000004
210
0
220
-7.0064923216240822e-46
230
1
0
CIRCLE
5
106
100
AcDbEntity
8
0
100
AcDbCircle
10
14.911542763222819
20
53.371271813178893
30
8.8817841970012523e-15
40
1.0000000000000004
210
0
220
-7.0064923216240822e-46
230
1
0
CIRCLE
5
107
100
AcDbEntity
8
0
100
AcDbCircle
10
14.911542763222819
20
59.3712718131789
30
8.8817841970012523e-15
40
1.0000000000000004
210
0
220
-7.0064923216240822e-46
230
1
0
CIRCLE
5
108
100
AcDbEntity
8
0
100
AcDbCircle
10
14.911542763222819
20
50.371271813178886
30
8.8817841970012523e-15
40
1.0000000000000004
210
0
220
-7.0064923216240822e-46
230
1
0
LWPOLYLINE
5
109
100
AcDbEntity
8
0
100
AcDbPolyline
90
52
70
1
43
0.0
10
-10.105328110910797
20
37.371586310629006
10
-2.1051273730635778
20
37.371586310629006
10
-2.1051273730635778
20
34.37159716132345
10
5.8950733647836433
20
34.371597161323457
10
5.8950733647836415
20
37.371586310629006
10
11.89505166339476
20
37.371586310628999
10
11.895051663394762
20
34.37159716132345
10
17.895029962005871
20
34.371597161323457
10
17.895029962005871
20
37.371586310629006
10
23.895008260616983
20
37.371586310628999
10
23.895008260616983
20
34.37159716132345
10
31.894519979366986
20
34.371597161323457
10
31.894519979366986
20
37.371586310629006
10
39.894720717214199
20
37.371586310628999
10
39.894720717214199
20
43.871792473823447
10
36.894731567908636
20
43.871792473823454
10
36.894731567908636
20
53.371987786323473
10
39.894720717214199
20
53.371987786323473
10
39.894720717214199
20
59.37196608493457
10
36.894731567908636
20
59.37196608493457
10
36.894731567908636
20
65.371944383545696
10
39.894720717214199
20
65.371944383545696
10
39.894720717214199
20
71.371922682156821
10
36.894731567908636
20
71.371922682156821
10
36.894731567908636
20
80.872117994656776
10
39.894720717214199
20
80.87211799465679
10
39.894720717214199
20
87.37163513875403
10
31.894519979366986
20
87.37163513875403
10
31.894519979366986
20
90.371624288059579
10
23.895008260616983
20
90.371624288059579
10
23.895008260616983
20
87.37163513875403
10
17.895029962005871
20
87.37163513875403
10
17.895029962005871
20
90.371624288059579
10
11.89505166339476
20
90.371624288059579
10
11.89505166339476
20
87.37163513875403
10
5.8950733647836433
20
87.37163513875403
10
5.8950733647836433
20
90.371624288059579
10
-2.1051273730635778
20
90.371624288059579
10
-2.1051273730635778
20
87.37163513875403
10
-10.105328110910797
20
87.371635138754016
10
-10.105328110910797
20
80.872117994656776
10
-7.1053389616052343
20
80.87211799465679
10
-7.1053389616052343
20
71.371922682156821
10
-10.105328110910797
20
71.371922682156821
10
-10.105328110910797
20
65.371944383545696
10
-7.1053389616052343
20
65.371944383545696
10
-7.1053389616052343
20
59.37196608493457
10
-10.105328110910797
20
59.37196608493457
10
-10.105328110910797
20
53.371987786323473
10
-7.1053389616052343
20
53.371987786323473
10
-7.1053389616052343
20
43.871792473823447
10
-10.105328110910797
20
43.871792473823447
0
ENDSEC
0
SECTION
2
OBJECTS
0
DICTIONARY
5
C
100
AcDbDictionary
3
ACAD_GROUP
350
D
3
ACAD_MLINESTYLE
350
17
0
DICTIONARY
5
D
100
AcDbDictionary
0
DICTIONARY
5
1A
330
C
100
AcDbDictionary
0
DICTIONARY
5
17
100
AcDbDictionary
0
ENDSEC
0
EOF
