0
SECTION
2
HEADER
9
$INSUNITS
70
4
9
$ACADVER
1
AC1014
9
$HANDSEED
5
FFFF
0
ENDSEC
0
SECTION
2
TABLES
0
TABLE
2
VPORT
5
8
100
AcDbSymbolTable
0
ENDTAB
0
TABLE
2
LTYPE
5
5
100
AcDbSymbolTable
0
LTYPE
5
14
100
AcDbSymbolTableRecord
100
AcDbLinetypeTableRecord
2
BYBLOCK
70
0
0
LTYPE
5
15
100
AcDbSymbolTableRecord
100
AcDbLinetypeTableRecord
2
BYLAYER
70
0
0
ENDTAB
0
TABLE
2
LAYER
5
2
100
AcDbSymbolTable
70
2
0
LAYER
5
50
100
AcDbSymbolTableRecord
100
AcDbLayerTableRecord
2
0
70
0
6
CONTINUOUS
0
ENDTAB
0
TABLE
2
STYLE
5
3
100
AcDbSymbolTable
70
1
0
STYLE
5
11
100
AcDbSymbolTableRecord
100
AcDbTextStyleTableRecord
2
STANDARD
70
0
0
ENDTAB
0
TABLE
2
VIEW
5
6
100
AcDbSymbolTable
70
0
0
ENDTAB
0
TABLE
2
UCS
5
7
100
AcDbSymbolTable
70
0
0
ENDTAB
0
TABLE
2
APPID
5
9
100
AcDbSymbolTable
70
2
0
APPID
5
12
100
AcDbSymbolTableRecord
100
AcDbRegAppTableRecord
2
ACAD
70
0
0
ENDTAB
0
TABLE
2
DIMSTYLE
5
A
100
AcDbSymbolTable
70
1
0
ENDTAB
0
TABLE
2
BLOCK_RECORD
5
1
100
AcDbSymbolTable
70
1
0
BLOCK_RECORD
5
1F
100
AcDbSymbolTableRecord
100
AcDbBlockTableRecord
2
*MODEL_SPACE
0
BLOCK_RECORD
5
1B
100
AcDbSymbolTableRecord
100
AcDbBlockTableRecord
2
*PAPER_SPACE
0
ENDTAB
0
ENDSEC
0
SECTION
2
BLOCKS
0
BLOCK
5
20
100
AcDbEntity
100
AcDbBlockBegin
2
*MODEL_SPACE
0
ENDBLK
5
21
100
AcDbEntity
100
AcDbBlockEnd
0
BLOCK
5
1C
100
AcDbEntity
100
AcDbBlockBegin
2
*PAPER_SPACE
0
ENDBLK
5
1D
100
AcDbEntity
100
AcDbBlockEnd
0
ENDSEC
0
SECTION
2
ENTITIES
0
SPLINE
5
100
100
AcDbEntity
8
0
100
AcDbSpline
70
0
71
3
72
8
73
4
74
0
42
0.000000001
43
0.0000000001
44
0.0000000001
40
15
40
15
40
15
40
15
40
16
40
16
40
16
40
16
10
-1.4274623243765383
20
51.866340528138295
30
1.5875487696659363e-06
10
-1.4274623243765383
20
56.890667785082712
30
1.5875487702210478e-06
10
2.2780823804845785
20
61.048553527270201
30
1.5875487702210478e-06
10
7.1053501756234594
20
61.758243197409115
30
1.5875487696659363e-06
0
LINE
5
101
100
AcDbEntity
8
0
100
AcDbLine
10
7.1053501756234594
20
61.758243197409101
30
1.5875487696659363e-06
11
7.1053501756234594
21
68.866508713902164
31
1.5875487696659363e-06
0
LINE
5
102
100
AcDbEntity
8
0
100
AcDbLine
10
7.1053501756234594
20
68.866508713902164
30
1.5875487696659363e-06
11
10.105339324929021
21
68.866508713902164
31
1.5875487696659363e-06
0
LINE
5
103
100
AcDbEntity
8
0
100
AcDbLine
10
10.105339324929021
20
68.866508713902164
30
1.5875487696659363e-06
11
10.105339324929021
21
76.866364942200761
31
1.5875487696659363e-06
0
LINE
5
104
100
AcDbEntity
8
0
100
AcDbLine
10
10.105339324929021
20
76.866364942200761
30
1.5875487696659363e-06
11
2.1051385870817985
21
76.866364942200761
31
1.5875487696659363e-06
0
LINE
5
105
100
AcDbEntity
8
0
100
AcDbLine
10
2.1051385870817985
20
76.866364942200761
30
1.5875487696659363e-06
11
2.1051385870817985
21
73.866375792895212
31
1.5875487696659363e-06
0
LINE
5
106
100
AcDbEntity
8
0
100
AcDbLine
10
2.1051385870817985
20
73.866375792895212
30
1.5875487696659363e-06
11
-5.8943731316682069
21
73.866375792895212
31
1.5875487696659363e-06
0
LINE
5
107
100
AcDbEntity
8
0
100
AcDbLine
10
-5.8943731316682069
20
73.866375792895212
30
1.5875487696659363e-06
11
-5.8943731316682069
21
76.866364942200761
31
1.5875487696659363e-06
0
LINE
5
108
100
AcDbEntity
8
0
100
AcDbLine
10
-5.8943731316682069
20
76.866364942200761
30
1.5875487696659363e-06
11
-11.89435143027929
21
76.866364942200761
31
1.5875487696659363e-06
0
LINE
5
109
100
AcDbEntity
8
0
100
AcDbLine
10
-11.89435143027929
20
76.866364942200761
30
1.5875487696659363e-06
11
-11.89435143027929
21
73.866375792895212
31
1.5875487696659363e-06
0
LINE
5
110
100
AcDbEntity
8
0
100
AcDbLine
10
-11.89435143027929
20
73.866375792895212
30
1.5875487696659363e-06
11
-17.894157474116128
21
73.866375792895212
31
1.5875487696659363e-06
0
LINE
5
111
100
AcDbEntity
8
0
100
AcDbLine
10
-17.894157474116128
20
73.866375792895212
30
1.5875487696659363e-06
11
-17.894157474116128
21
76.866364942200761
31
1.5875487696659363e-06
0
LINE
5
112
100
AcDbEntity
8
0
100
AcDbLine
10
-17.894157474116128
20
76.866364942200761
30
1.5875487696659363e-06
11
-23.894308027501523
21
76.866364942200761
31
1.5875487696659363e-06
0
LINE
5
113
100
AcDbEntity
8
0
100
AcDbLine
10
-23.894308027501523
20
76.866364942200761
30
1.5875487696659363e-06
11
-23.894308027501523
21
73.866375792895212
31
1.5875487696659363e-06
0
LINE
5
114
100
AcDbEntity
8
0
100
AcDbLine
10
-23.894308027501523
20
73.866375792895212
30
1.5875487696659363e-06
11
-31.89381974625153
21
73.866375792895212
31
1.5875487696659363e-06
0
LINE
5
115
100
AcDbEntity
8
0
100
AcDbLine
10
-31.89381974625153
20
73.866375792895212
30
1.5875487696659363e-06
11
-31.89381974625153
21
76.866364942200761
31
1.5875487696659363e-06
0
LINE
5
116
100
AcDbEntity
8
0
100
AcDbLine
10
-31.89381974625153
20
76.866364942200761
30
1.5875487696659363e-06
11
-39.894881757970275
21
76.866364942200761
31
1.5875487696659363e-06
0
LINE
5
117
100
AcDbEntity
8
0
100
AcDbLine
10
-39.894881757970275
20
76.866364942200761
30
1.5875487696659363e-06
11
-39.894881757970275
21
68.866508713902164
31
1.5875487696659363e-06
0
LINE
5
118
100
AcDbEntity
8
0
100
AcDbLine
10
-39.894881757970275
20
68.866508713902164
30
1.5875487696659363e-06
11
-36.89472035389042
21
68.866508713902164
31
1.5875487696659363e-06
0
LINE
5
119
100
AcDbEntity
8
0
100
AcDbLine
10
-36.89472035389042
20
68.866508713902164
30
1.5875487696659363e-06
11
-36.89472035389042
21
61.745840853659111
31
1.5875487696659363e-06
0
SPLINE
5
120
100
AcDbEntity
8
0
100
AcDbSpline
70
0
71
3
72
8
73
4
74
0
42
0.000000001
43
0.0000000001
44
0.0000000001
40
37
40
37
40
37
40
37
40
38
40
38
40
38
40
38
10
-36.89472035389042
20
61.745840853659111
30
1.5875487696659363e-06
10
-32.108621449810549
20
60.999977680916047
30
1.5875487702210478e-06
10
-28.446829457623039
20
56.861384473450812
30
1.5875487702210478e-06
10
-28.446829457623039
20
51.866340528138295
30
1.5875487696659363e-06
0
SPLINE
5
121
100
AcDbEntity
8
0
100
AcDbSpline
70
0
71
3
72
8
73
4
74
0
42
0.000000001
43
0.0000000001
44
0.0000000001
40
36
40
36
40
36
40
36
40
37
40
37
40
37
40
37
10
-28.446829457623039
20
51.866340528138295
30
1.5875487696659363e-06
10
-28.446829457623039
20
46.871813347148702
30
1.5875487702210478e-06
10
-32.108621449810549
20
42.732703375360508
30
1.5875487702210478e-06
10
-36.89472035389042
20
41.986840202617458
30
1.5875487696659363e-06
0
LINE
5
122
100
AcDbEntity
8
0
100
AcDbLine
10
-36.894720353890413
20
41.986840202617458
30
1.5875487696659363e-06
11
-36.89472035389042
21
34.866344597148711
31
1.5875487696659363e-06
0
LINE
5
123
100
AcDbEntity
8
0
100
AcDbLine
10
-36.89472035389042
20
34.866344597148711
30
1.5875487696659363e-06
11
-39.894881757970275
21
34.866344597148711
31
1.5875487696659363e-06
0
LINE
5
124
100
AcDbEntity
8
0
100
AcDbLine
10
-39.894881757970275
20
34.866344597148711
30
1.5875487696659363e-06
11
-39.894881757970275
21
26.86648836885011
31
1.5875487696659363e-06
0
LINE
5
125
100
AcDbEntity
8
0
100
AcDbLine
10
-39.894881757970275
20
26.86648836885011
30
1.5875487696659363e-06
11
-31.89381974625153
21
26.86648836885011
31
1.5875487696659363e-06
0
LINE
5
126
100
AcDbEntity
8
0
100
AcDbLine
10
-31.89381974625153
20
26.86648836885011
30
1.5875487696659363e-06
11
-31.89381974625153
21
29.866133008607036
31
1.5875487696659363e-06
0
LINE
5
127
100
AcDbEntity
8
0
100
AcDbLine
10
-31.89381974625153
20
29.866133008607036
30
1.5875487696659363e-06
11
-23.894308027501523
21
29.866133008607036
31
1.5875487696659363e-06
0
LINE
5
128
100
AcDbEntity
8
0
100
AcDbLine
10
-23.894308027501523
20
29.866133008607036
30
1.5875487696659363e-06
11
-23.894308027501523
21
26.86648836885011
31
1.5875487696659363e-06
0
LINE
5
129
100
AcDbEntity
8
0
100
AcDbLine
10
-23.894308027501523
20
26.86648836885011
30
1.5875487696659363e-06
11
-17.894157474116128
21
26.86648836885011
31
1.5875487696659363e-06
0
LINE
5
130
100
AcDbEntity
8
0
100
AcDbLine
10
-17.894157474116128
20
26.86648836885011
30
1.5875487696659363e-06
11
-17.894157474116128
21
29.866133008607036
31
1.5875487696659363e-06
0
LINE
5
131
100
AcDbEntity
8
0
100
AcDbLine
10
-17.894157474116128
20
29.866133008607036
30
1.5875487696659363e-06
11
-11.89435143027929
21
29.866133008607036
31
1.5875487696659363e-06
0
LINE
5
132
100
AcDbEntity
8
0
100
AcDbLine
10
-11.89435143027929
20
29.866133008607036
30
1.5875487696659363e-06
11
-11.89435143027929
21
26.86648836885011
31
1.5875487696659363e-06
0
LINE
5
133
100
AcDbEntity
8
0
100
AcDbLine
10
-11.89435143027929
20
26.86648836885011
30
1.5875487696659363e-06
11
-5.8943731316682069
21
26.86648836885011
31
1.5875487696659363e-06
0
LINE
5
134
100
AcDbEntity
8
0
100
AcDbLine
10
-5.8943731316682069
20
26.86648836885011
30
1.5875487696659363e-06
11
-5.8943731316682069
21
29.866133008607036
31
1.5875487696659363e-06
0
LINE
5
135
100
AcDbEntity
8
0
100
AcDbLine
10
-5.8943731316682069
20
29.866133008607036
30
1.5875487696659363e-06
11
2.1051385870817985
21
29.866133008607036
31
1.5875487696659363e-06
0
LINE
5
136
100
AcDbEntity
8
0
100
AcDbLine
10
2.1051385870817985
20
29.866133008607036
30
1.5875487696659363e-06
11
2.1051385870817985
21
26.86648836885011
31
1.5875487696659363e-06
0
LINE
5
137
100
AcDbEntity
8
0
100
AcDbLine
10
2.1051385870817985
20
26.86648836885011
30
1.5875487696659363e-06
11
10.105339324929021
21
26.86648836885011
31
1.5875487696659363e-06
0
LINE
5
138
100
AcDbEntity
8
0
100
AcDbLine
10
10.105339324929021
20
26.86648836885011
30
1.5875487696659363e-06
11
10.105339324929021
21
34.866344597148711
31
1.5875487696659363e-06
0
LINE
5
139
100
AcDbEntity
8
0
100
AcDbLine
10
10.105339324929021
20
34.866344597148711
30
1.5875487696659363e-06
11
7.1053501756234594
21
34.866344597148711
31
1.5875487696659363e-06
0
LINE
5
140
100
AcDbEntity
8
0
100
AcDbLine
10
7.1053501756234594
20
34.866344597148711
30
1.5875487696659363e-06
11
7.1053501756234594
21
41.974610113641759
31
1.5875487696659363e-06
0
SPLINE
5
141
100
AcDbEntity
8
0
100
AcDbSpline
70
0
71
3
72
8
73
4
74
0
42
0.000000001
43
0.0000000001
44
0.0000000001
40
16
40
16
40
16
40
16
40
17
40
17
40
17
40
17
10
7.1053501756234594
20
41.974610113641759
30
1.5875487696659363e-06
10
2.2780823804845785
20
42.683955274232076
30
1.5875487702210478e-06
10
-1.4274623243765383
20
46.842185525968141
30
1.5875487702210478e-06
10
-1.4274623243765383
20
51.866340528138295
30
1.5875487696659363e-06
0
SPLINE
5
142
100
AcDbEntity
8
0
100
AcDbSpline
70
0
71
3
72
8
73
4
74
0
42
0.000000001
43
0.0000000001
44
0.0000000001
40
15
40
15
40
15
40
15
40
16
40
16
40
16
40
16
10
-1.4274623243765383
20
51.866340528138402
30
-5.5511151231257827e-16
10
-1.4274623243765383
20
56.890667785082826
30
-5.5511151231257827e-16
10
2.2780823804845785
20
61.0485535272703
30
-5.5511151231257827e-16
10
7.1053501756234594
20
61.758243197409243
30
-5.5511151231257827e-16
0
LINE
5
143
100
AcDbEntity
8
0
100
AcDbLine
10
7.1053501756234585
20
61.758243197409243
30
-5.5511151231257827e-16
11
7.1053501756234594
21
68.866508713902292
31
-5.5511151231257827e-16
0
LINE
5
144
100
AcDbEntity
8
0
100
AcDbLine
10
7.1053501756234594
20
68.866508713902292
30
-5.5511151231257827e-16
11
10.105339324929021
21
68.866508713902292
31
-5.5511151231257827e-16
0
LINE
5
145
100
AcDbEntity
8
0
100
AcDbLine
10
10.105339324929021
20
68.866508713902292
30
-5.5511151231257827e-16
11
10.105339324929021
21
76.866364942200903
31
-5.5511151231257827e-16
0
LINE
5
146
100
AcDbEntity
8
0
100
AcDbLine
10
10.105339324929021
20
76.866364942200903
30
-5.5511151231257827e-16
11
2.1051385870817985
21
76.866364942200903
31
-5.5511151231257827e-16
0
LINE
5
147
100
AcDbEntity
8
0
100
AcDbLine
10
2.1051385870817985
20
76.866364942200903
30
-5.5511151231257827e-16
11
2.1051385870817985
21
73.866375792895354
31
-5.5511151231257827e-16
0
LINE
5
148
100
AcDbEntity
8
0
100
AcDbLine
10
2.1051385870817985
20
73.866375792895354
30
-5.5511151231257827e-16
11
-5.8943731316682069
21
73.866375792895354
31
-5.5511151231257827e-16
0
LINE
5
149
100
AcDbEntity
8
0
100
AcDbLine
10
-5.8943731316682069
20
73.866375792895354
30
-5.5511151231257827e-16
11
-5.8943731316682069
21
76.866364942200903
31
-5.5511151231257827e-16
0
LINE
5
150
100
AcDbEntity
8
0
100
AcDbLine
10
-5.8943731316682069
20
76.866364942200903
30
-5.5511151231257827e-16
11
-11.89435143027929
21
76.866364942200903
31
-5.5511151231257827e-16
0
LINE
5
151
100
AcDbEntity
8
0
100
AcDbLine
10
-11.89435143027929
20
76.866364942200903
30
-5.5511151231257827e-16
11
-11.89435143027929
21
73.866375792895354
31
-5.5511151231257827e-16
0
LINE
5
152
100
AcDbEntity
8
0
100
AcDbLine
10
-11.89435143027929
20
73.866375792895354
30
-5.5511151231257827e-16
11
-17.894157474116128
21
73.866375792895354
31
-5.5511151231257827e-16
0
LINE
5
153
100
AcDbEntity
8
0
100
AcDbLine
10
-17.894157474116128
20
73.866375792895354
30
-5.5511151231257827e-16
11
-17.894157474116128
21
76.866364942200903
31
-5.5511151231257827e-16
0
LINE
5
154
100
AcDbEntity
8
0
100
AcDbLine
10
-17.894157474116128
20
76.866364942200903
30
-5.5511151231257827e-16
11
-23.89430802750153
21
76.866364942200903
31
-5.5511151231257827e-16
0
LINE
5
155
100
AcDbEntity
8
0
100
AcDbLine
10
-23.89430802750153
20
76.866364942200903
30
-5.5511151231257827e-16
11
-23.894308027501523
21
73.866375792895354
31
-5.5511151231257827e-16
0
LINE
5
156
100
AcDbEntity
8
0
100
AcDbLine
10
-23.894308027501523
20
73.866375792895354
30
-5.5511151231257827e-16
11
-31.89381974625153
21
73.866375792895354
31
-5.5511151231257827e-16
0
LINE
5
157
100
AcDbEntity
8
0
100
AcDbLine
10
-31.89381974625153
20
73.866375792895354
30
-5.5511151231257827e-16
11
-31.89381974625153
21
76.866364942200903
31
-5.5511151231257827e-16
0
LINE
5
158
100
AcDbEntity
8
0
100
AcDbLine
10
-31.89381974625153
20
76.866364942200903
30
-5.5511151231257827e-16
11
-39.894881757970275
21
76.866364942200903
31
-5.5511151231257827e-16
0
LINE
5
159
100
AcDbEntity
8
0
100
AcDbLine
10
-39.894881757970275
20
76.866364942200903
30
-5.5511151231257827e-16
11
-39.894881757970275
21
68.866508713902292
31
-5.5511151231257827e-16
0
LINE
5
160
100
AcDbEntity
8
0
100
AcDbLine
10
-39.894881757970275
20
68.866508713902292
30
-5.5511151231257827e-16
11
-36.89472035389042
21
68.866508713902292
31
-5.5511151231257827e-16
0
LINE
5
161
100
AcDbEntity
8
0
100
AcDbLine
10
-36.89472035389042
20
68.866508713902292
30
-5.5511151231257827e-16
11
-36.89472035389042
21
61.745840853659224
31
-5.5511151231257827e-16
0
SPLINE
5
162
100
AcDbEntity
8
0
100
AcDbSpline
70
0
71
3
72
8
73
4
74
0
42
0.000000001
43
0.0000000001
44
0.0000000001
40
37
40
37
40
37
40
37
40
38
40
38
40
38
40
38
10
-36.89472035389042
20
61.745840853659232
30
-5.5511151231257827e-16
10
-32.108621449810549
20
60.999977680916153
30
-5.5511151231257827e-16
10
-28.446829457623039
20
56.861384473450926
30
-5.5511151231257827e-16
10
-28.446829457623039
20
51.866340528138402
30
-5.5511151231257827e-16
0
SPLINE
5
163
100
AcDbEntity
8
0
100
AcDbSpline
70
0
71
3
72
8
73
4
74
0
42
0.000000001
43
0.0000000001
44
0.0000000001
40
36
40
36
40
36
40
36
40
37
40
37
40
37
40
37
10
-28.446829457623039
20
51.866340528138402
30
-5.5511151231257827e-16
10
-28.446829457623039
20
46.871813347148787
30
-5.5511151231257827e-16
10
-32.108621449810549
20
42.7327033753606
30
-5.5511151231257827e-16
10
-36.89472035389042
20
41.98684020261755
30
-5.5511151231257827e-16
0
LINE
5
164
100
AcDbEntity
8
0
100
AcDbLine
10
-36.89472035389042
20
41.98684020261755
30
-5.5511151231257827e-16
11
-36.89472035389042
21
34.866344597148789
31
-5.5511151231257827e-16
0
LINE
5
165
100
AcDbEntity
8
0
100
AcDbLine
10
-36.89472035389042
20
34.866344597148789
30
-5.5511151231257827e-16
11
-39.894881757970275
21
34.866344597148782
31
-5.5511151231257827e-16
0
LINE
5
166
100
AcDbEntity
8
0
100
AcDbLine
10
-39.894881757970275
20
34.866344597148782
30
-5.5511151231257827e-16
11
-39.894881757970275
21
26.866488368850167
31
-5.5511151231257827e-16
0
LINE
5
167
100
AcDbEntity
8
0
100
AcDbLine
10
-39.894881757970275
20
26.866488368850167
30
-5.5511151231257827e-16
11
-31.89381974625153
21
26.866488368850163
31
-5.5511151231257827e-16
0
LINE
5
168
100
AcDbEntity
8
0
100
AcDbLine
10
-31.89381974625153
20
26.866488368850163
30
-5.5511151231257827e-16
11
-31.89381974625153
21
29.866133008607093
31
-5.5511151231257827e-16
0
LINE
5
169
100
AcDbEntity
8
0
100
AcDbLine
10
-31.89381974625153
20
29.866133008607093
30
-5.5511151231257827e-16
11
-23.894308027501523
21
29.866133008607108
31
-5.5511151231257827e-16
0
LINE
5
170
100
AcDbEntity
8
0
100
AcDbLine
10
-23.894308027501523
20
29.866133008607108
30
-5.5511151231257827e-16
11
-23.894308027501523
21
26.866488368850177
31
-5.5511151231257827e-16
0
LINE
5
171
100
AcDbEntity
8
0
100
AcDbLine
10
-23.894308027501523
20
26.866488368850177
30
-5.5511151231257827e-16
11
-17.89415747411612
21
26.866488368850163
31
-5.5511151231257827e-16
0
LINE
5
172
100
AcDbEntity
8
0
100
AcDbLine
10
-17.89415747411612
20
26.866488368850163
30
-5.5511151231257827e-16
11
-17.894157474116128
21
29.866133008607093
31
-5.5511151231257827e-16
0
LINE
5
173
100
AcDbEntity
8
0
100
AcDbLine
10
-17.894157474116128
20
29.866133008607093
30
-5.5511151231257827e-16
11
-11.89435143027929
21
29.866133008607108
31
-5.5511151231257827e-16
0
LINE
5
174
100
AcDbEntity
8
0
100
AcDbLine
10
-11.89435143027929
20
29.866133008607108
30
-5.5511151231257827e-16
11
-11.89435143027929
21
26.866488368850177
31
-5.5511151231257827e-16
0
LINE
5
175
100
AcDbEntity
8
0
100
AcDbLine
10
-11.89435143027929
20
26.866488368850177
30
-5.5511151231257827e-16
11
-5.8943731316682069
21
26.866488368850163
31
-5.5511151231257827e-16
0
LINE
5
176
100
AcDbEntity
8
0
100
AcDbLine
10
-5.8943731316682069
20
26.866488368850163
30
-5.5511151231257827e-16
11
-5.8943731316682069
21
29.866133008607093
31
-5.5511151231257827e-16
0
LINE
5
177
100
AcDbEntity
8
0
100
AcDbLine
10
-5.8943731316682069
20
29.866133008607093
30
-5.5511151231257827e-16
11
2.1051385870817985
21
29.866133008607108
31
-5.5511151231257827e-16
0
LINE
5
178
100
AcDbEntity
8
0
100
AcDbLine
10
2.1051385870817985
20
29.866133008607108
30
-5.5511151231257827e-16
11
2.1051385870817985
21
26.866488368850177
31
-5.5511151231257827e-16
0
LINE
5
179
100
AcDbEntity
8
0
100
AcDbLine
10
2.1051385870817985
20
26.866488368850177
30
-5.5511151231257827e-16
11
10.105339324929021
21
26.866488368850163
31
-5.5511151231257827e-16
0
LINE
5
180
100
AcDbEntity
8
0
100
AcDbLine
10
10.105339324929021
20
26.866488368850163
30
-5.5511151231257827e-16
11
10.105339324929021
21
34.866344597148775
31
-5.5511151231257827e-16
0
LINE
5
181
100
AcDbEntity
8
0
100
AcDbLine
10
10.105339324929021
20
34.866344597148775
30
-5.5511151231257827e-16
11
7.1053501756234594
21
34.866344597148782
31
-5.5511151231257827e-16
0
LINE
5
182
100
AcDbEntity
8
0
100
AcDbLine
10
7.1053501756234594
20
34.866344597148782
30
-5.5511151231257827e-16
11
7.1053501756234594
21
41.974610113641837
31
-5.5511151231257827e-16
0
SPLINE
5
183
100
AcDbEntity
8
0
100
AcDbSpline
70
0
71
3
72
8
73
4
74
0
42
0.000000001
43
0.0000000001
44
0.0000000001
40
16
40
16
40
16
40
16
40
17
40
17
40
17
40
17
10
7.1053501756234594
20
41.974610113641845
30
-5.5511151231257827e-16
10
2.2780823804845785
20
42.683955274232162
30
-5.5511151231257827e-16
10
-1.4274623243765383
20
46.842185525968233
30
-5.5511151231257827e-16
10
-1.4274623243765383
20
51.866340528138402
30
-5.5511151231257827e-16
0
ENDSEC
0
SECTION
2
OBJECTS
0
DICTIONARY
5
C
100
AcDbDictionary
3
ACAD_GROUP
350
D
3
ACAD_MLINESTYLE
350
17
0
DICTIONARY
5
D
100
AcDbDictionary
0
DICTIONARY
5
1A
330
C
100
AcDbDictionary
0
DICTIONARY
5
17
100
AcDbDictionary
0
ENDSEC
0
EOF
