0
SECTION
2
HEADER
9
$INSUNITS
70
4
9
$ACADVER
1
AC1014
9
$HANDSEED
5
FFFF
0
ENDSEC
0
SECTION
2
TABLES
0
TABLE
2
VPORT
5
8
100
AcDbSymbolTable
0
ENDTAB
0
TABLE
2
LTYPE
5
5
100
AcDbSymbolTable
0
LTYPE
5
14
100
AcDbSymbolTableRecord
100
AcDbLinetypeTableRecord
2
BYBLOCK
70
0
0
LTYPE
5
15
100
AcDbSymbolTableRecord
100
AcDbLinetypeTableRecord
2
BYLAYER
70
0
0
ENDTAB
0
TABLE
2
LAYER
5
2
100
AcDbSymbolTable
70
2
0
LAYER
5
50
100
AcDbSymbolTableRecord
100
AcDbLayerTableRecord
2
0
70
0
6
CONTINUOUS
0
ENDTAB
0
TABLE
2
STYLE
5
3
100
AcDbSymbolTable
70
1
0
STYLE
5
11
100
AcDbSymbolTableRecord
100
AcDbTextStyleTableRecord
2
STANDARD
70
0
0
ENDTAB
0
TABLE
2
VIEW
5
6
100
AcDbSymbolTable
70
0
0
ENDTAB
0
TABLE
2
UCS
5
7
100
AcDbSymbolTable
70
0
0
ENDTAB
0
TABLE
2
APPID
5
9
100
AcDbSymbolTable
70
2
0
APPID
5
12
100
AcDbSymbolTableRecord
100
AcDbRegAppTableRecord
2
ACAD
70
0
0
ENDTAB
0
TABLE
2
DIMSTYLE
5
A
100
AcDbSymbolTable
70
1
0
ENDTAB
0
TABLE
2
BLOCK_RECORD
5
1
100
AcDbSymbolTable
70
1
0
BLOCK_RECORD
5
1F
100
AcDbSymbolTableRecord
100
AcDbBlockTableRecord
2
*MODEL_SPACE
0
BLOCK_RECORD
5
1B
100
AcDbSymbolTableRecord
100
AcDbBlockTableRecord
2
*PAPER_SPACE
0
ENDTAB
0
ENDSEC
0
SECTION
2
BLOCKS
0
BLOCK
5
20
100
AcDbEntity
100
AcDbBlockBegin
2
*MODEL_SPACE
0
ENDBLK
5
21
100
AcDbEntity
100
AcDbBlockEnd
0
BLOCK
5
1C
100
AcDbEntity
100
AcDbBlockBegin
2
*PAPER_SPACE
0
ENDBLK
5
1D
100
AcDbEntity
100
AcDbBlockEnd
0
ENDSEC
0
SECTION
2
ENTITIES
0
ELLIPSE
5
100
100
AcDbEntity
8
0
100
AcDbEllipse
10
-75.216540412400917
20
89.167053128590652
30
9.4637837289024418e-07
11
33.349671639189786
21
-0.36698309191311701
31
0.0
40
0.54613373334750592
41
0.0060093207463516804
42
0.086317845624570108
0
SPLINE
5
101
100
AcDbEntity
8
0
100
AcDbSpline
70
0
71
3
72
8
73
4
74
0
42
0.000000001
43
0.0000000001
44
0.0000000001
40
7
40
7
40
7
40
7
40
8
40
8
40
8
40
8
10
-41.866266540091473
20
88.909526050522402
30
9.4637837289024418e-07
10
-41.866266540091537
20
83.386348967189036
30
9.4637837344535569e-07
10
-46.343512633841577
20
78.909791892536333
30
9.4637837344535569e-07
10
-51.866000698077684
20
78.90979189253639
30
9.4637837289024418e-07
0
SPLINE
5
102
100
AcDbEntity
8
0
100
AcDbSpline
70
0
71
3
72
8
73
4
74
0
42
0.000000001
43
0.0000000001
44
0.0000000001
40
8
40
8
40
8
40
8
40
9
40
9
40
9
40
9
10
-51.866000698077684
20
78.90979189253639
30
9.4637837289024418e-07
10
-57.389177781410993
20
78.909791892536433
30
9.4637837344535569e-07
10
-61.866423875160933
20
83.386348967189221
30
9.4637837344535569e-07
10
-61.866423875160876
20
88.909526050522601
30
9.4637837289024418e-07
0
ELLIPSE
5
103
100
AcDbEntity
8
0
100
AcDbEllipse
10
-5.8171224207367223
20
92.59031073050383
30
9.4637837289024418e-07
11
56.018423213542917
21
4.4588896409254364
31
0.0
40
0.41719570534066436
41
3.0464565275562401
42
3.1083975502126298
0
LINE
5
104
100
AcDbEntity
8
0
100
AcDbLine
10
-61.758936895994161
20
90.371624574828132
30
9.4637837289024418e-07
11
-68.866168883841397
21
90.371624574828203
31
9.4637837289024418e-07
0
LINE
5
105
100
AcDbEntity
8
0
100
AcDbLine
10
-68.866168883841397
20
90.371624574828203
30
9.4637837289024418e-07
11
-68.866168883841425
21
87.371635425522655
31
9.4637837289024418e-07
0
LINE
5
106
100
AcDbEntity
8
0
100
AcDbLine
10
-68.866168883841425
20
87.371635425522655
30
9.4637837289024418e-07
11
-73.866380472383128
21
87.371635425522697
31
9.4637837289024418e-07
0
LINE
5
107
100
AcDbEntity
8
0
100
AcDbLine
10
-73.866380472383128
20
87.371635425522697
30
9.4637837289024418e-07
11
-73.866380472383199
21
80.871429262328263
31
9.4637837289024418e-07
0
LINE
5
108
100
AcDbEntity
8
0
100
AcDbLine
10
-73.866380472383199
20
80.871429262328263
30
9.4637837289024418e-07
11
-76.866369621688776
21
80.871429262328292
31
9.4637837289024418e-07
0
LINE
5
109
100
AcDbEntity
8
0
100
AcDbLine
10
-76.866369621688776
20
80.871429262328292
30
9.4637837289024418e-07
11
-76.866369621688875
21
71.371922968925517
31
9.4637837289024418e-07
0
LINE
5
110
100
AcDbEntity
8
0
100
AcDbLine
10
-76.866369621688875
20
71.371922968925517
30
9.4637837289024418e-07
11
-73.866380472383284
21
71.371922968925489
31
9.4637837289024418e-07
0
LINE
5
111
100
AcDbEntity
8
0
100
AcDbLine
10
-73.866380472383284
20
71.371922968925489
30
9.4637837289024418e-07
11
-73.866380472383341
21
65.371255651217155
31
9.4637837289024418e-07
0
LINE
5
112
100
AcDbEntity
8
0
100
AcDbLine
10
-73.866380472383341
20
65.371255651217155
30
9.4637837289024418e-07
11
-76.866369621688918
21
65.371255651217183
31
9.4637837289024418e-07
0
LINE
5
113
100
AcDbEntity
8
0
100
AcDbLine
10
-76.866369621688918
20
65.371255651217183
30
9.4637837289024418e-07
11
-76.866369621688989
21
59.371277352606086
31
9.4637837289024418e-07
0
LINE
5
114
100
AcDbEntity
8
0
100
AcDbLine
10
-76.866369621688989
20
59.371277352606086
30
9.4637837289024418e-07
11
-73.866380472383412
21
59.371277352606057
31
9.4637837289024418e-07
0
LINE
5
115
100
AcDbEntity
8
0
100
AcDbLine
10
-73.866380472383412
20
59.371277352606057
30
9.4637837289024418e-07
11
-73.866380472383469
21
53.371299053994896
31
9.4637837289024418e-07
0
LINE
5
116
100
AcDbEntity
8
0
100
AcDbLine
10
-73.866380472383469
20
53.371299053994896
30
9.4637837289024418e-07
11
-76.866369621689046
21
53.371299053994925
31
9.4637837289024418e-07
0
LINE
5
117
100
AcDbEntity
8
0
100
AcDbLine
10
-76.866369621689046
20
53.371299053994925
30
9.4637837289024418e-07
11
-76.866369621689131
21
43.871792760592157
31
9.4637837289024418e-07
0
LINE
5
118
100
AcDbEntity
8
0
100
AcDbLine
10
-76.866369621689131
20
43.871792760592157
30
9.4637837289024418e-07
11
-73.866380472383554
21
43.871792760592129
31
9.4637837289024418e-07
0
LINE
5
119
100
AcDbEntity
8
0
100
AcDbLine
10
-73.866380472383554
20
43.871792760592129
30
9.4637837289024418e-07
11
-73.866380472383625
21
37.371586597397688
31
9.4637837289024418e-07
0
LINE
5
120
100
AcDbEntity
8
0
100
AcDbLine
10
-73.866380472383625
20
37.371586597397688
30
9.4637837289024418e-07
11
-68.866168883841937
21
37.371586597397638
31
9.4637837289024418e-07
0
LINE
5
121
100
AcDbEntity
8
0
100
AcDbLine
10
-68.866168883841937
20
37.371586597397638
30
9.4637837289024418e-07
11
-68.866168883841965
21
34.371597448092089
31
9.4637837289024418e-07
0
LINE
5
122
100
AcDbEntity
8
0
100
AcDbLine
10
-68.866168883841965
20
34.371597448092089
30
9.4637837289024418e-07
11
-60.865968145994756
21
34.371597448092018
31
9.4637837289024418e-07
0
LINE
5
123
100
AcDbEntity
8
0
100
AcDbLine
10
-60.865968145994756
20
34.371597448092018
30
9.4637837289024418e-07
11
-60.865968145994728
21
37.371586597397567
31
9.4637837289024418e-07
0
LINE
5
124
100
AcDbEntity
8
0
100
AcDbLine
10
-60.865968145994728
20
37.371586597397567
30
9.4637837289024418e-07
11
-54.865989847383617
21
37.371586597397503
31
9.4637837289024418e-07
0
LINE
5
125
100
AcDbEntity
8
0
100
AcDbLine
10
-54.865989847383617
20
37.371586597397503
30
9.4637837289024418e-07
11
-54.865989847383645
21
34.371597448091954
31
9.4637837289024418e-07
0
LINE
5
126
100
AcDbEntity
8
0
100
AcDbLine
10
-54.865989847383645
20
34.371597448091954
30
9.4637837289024418e-07
11
-48.866011548772548
21
34.371597448091897
31
9.4637837289024418e-07
0
LINE
5
127
100
AcDbEntity
8
0
100
AcDbLine
10
-48.866011548772548
20
34.371597448091897
30
9.4637837289024418e-07
11
-48.866011548772519
21
37.371586597397446
31
9.4637837289024418e-07
0
LINE
5
128
100
AcDbEntity
8
0
100
AcDbLine
10
-48.866011548772519
20
37.371586597397446
30
9.4637837289024418e-07
11
-42.866033250161422
21
37.371586597397389
31
9.4637837289024418e-07
0
LINE
5
129
100
AcDbEntity
8
0
100
AcDbLine
10
-42.866033250161422
20
37.371586597397389
30
9.4637837289024418e-07
11
-42.86603325016145
21
34.37159744809184
31
9.4637837289024418e-07
0
LINE
5
130
100
AcDbEntity
8
0
100
AcDbLine
10
-42.86603325016145
20
34.37159744809184
30
9.4637837289024418e-07
11
-34.866177021862903
21
34.371597448091762
31
9.4637837289024418e-07
0
LINE
5
131
100
AcDbEntity
8
0
100
AcDbLine
10
-34.866177021862903
20
34.371597448091762
30
9.4637837289024418e-07
11
-34.866177021862875
21
37.371586597397311
31
9.4637837289024418e-07
0
LINE
5
132
100
AcDbEntity
8
0
100
AcDbLine
10
-34.866177021862875
20
37.371586597397311
30
9.4637837289024418e-07
11
-29.866309942869744
21
37.371586597397261
31
9.4637837289024418e-07
0
LINE
5
133
100
AcDbEntity
8
0
100
AcDbLine
10
-29.866309942869744
20
37.371586597397261
30
9.4637837289024418e-07
11
-29.866309942869684
21
43.871792760591703
31
9.4637837289024418e-07
0
LINE
5
134
100
AcDbEntity
8
0
100
AcDbLine
10
-29.866309942869684
20
43.871792760591703
30
9.4637837289024418e-07
11
-26.866320793564078
21
43.87179276059166
31
9.4637837289024418e-07
0
LINE
5
135
100
AcDbEntity
8
0
100
AcDbLine
10
-26.866320793564078
20
43.87179276059166
30
9.4637837289024418e-07
11
-26.866320793563983
21
53.371299053994427
31
9.4637837289024418e-07
0
LINE
5
136
100
AcDbEntity
8
0
100
AcDbLine
10
-26.866320793563983
20
53.371299053994427
30
9.4637837289024418e-07
11
-29.866309942869584
21
53.371299053994463
31
9.4637837289024418e-07
0
LINE
5
137
100
AcDbEntity
8
0
100
AcDbLine
10
-29.866309942869584
20
53.371299053994463
30
9.4637837289024418e-07
11
-29.86630994286952
21
59.371277352605617
31
9.4637837289024418e-07
0
LINE
5
138
100
AcDbEntity
8
0
100
AcDbLine
10
-29.86630994286952
20
59.371277352605617
30
9.4637837289024418e-07
11
-26.866320793563922
21
59.371277352605588
31
9.4637837289024418e-07
0
LINE
5
139
100
AcDbEntity
8
0
100
AcDbLine
10
-26.866320793563922
20
59.371277352605588
30
9.4637837289024418e-07
11
-26.866320793563865
21
65.371255651216686
31
9.4637837289024418e-07
0
LINE
5
140
100
AcDbEntity
8
0
100
AcDbLine
10
-26.866320793563865
20
65.371255651216686
30
9.4637837289024418e-07
11
-29.866309942869471
21
65.371255651216714
31
9.4637837289024418e-07
0
LINE
5
141
100
AcDbEntity
8
0
100
AcDbLine
10
-29.866309942869471
20
65.371255651216714
30
9.4637837289024418e-07
11
-29.866309942869407
21
71.371922968925062
31
9.4637837289024418e-07
0
LINE
5
142
100
AcDbEntity
8
0
100
AcDbLine
10
-29.866309942869407
20
71.371922968925062
30
9.4637837289024418e-07
11
-26.866320793563805
21
71.37192296892502
31
9.4637837289024418e-07
0
LINE
5
143
100
AcDbEntity
8
0
100
AcDbLine
10
-26.866320793563805
20
71.37192296892502
30
9.4637837289024418e-07
11
-26.866320793563709
21
80.871773771876363
31
9.4637837289024418e-07
0
LINE
5
144
100
AcDbEntity
8
0
100
AcDbLine
10
-26.866320793563709
20
80.871773771876363
30
9.4637837289024418e-07
11
-29.866309942869307
21
80.871773771876406
31
9.4637837289024418e-07
0
LINE
5
145
100
AcDbEntity
8
0
100
AcDbLine
10
-29.866309942869307
20
80.871773771876406
30
9.4637837289024418e-07
11
-29.866309942869247
21
87.371635425522271
31
9.4637837289024418e-07
0
LINE
5
146
100
AcDbEntity
8
0
100
AcDbLine
10
-29.866309942869247
20
87.371635425522271
30
9.4637837289024418e-07
11
-34.866177021862377
21
87.371635425522314
31
9.4637837289024418e-07
0
LINE
5
147
100
AcDbEntity
8
0
100
AcDbLine
10
-34.866177021862377
20
87.371635425522314
30
9.4637837289024418e-07
11
-34.866177021862356
21
90.371624574827862
31
9.4637837289024418e-07
0
LINE
5
148
100
AcDbEntity
8
0
100
AcDbLine
10
-34.866177021862356
20
90.371624574827862
30
9.4637837289024418e-07
11
-41.973753519258075
21
90.371624574827933
31
9.4637837289024418e-07
0
ELLIPSE
5
149
100
AcDbEntity
8
0
100
AcDbEllipse
10
-75.216540412400946
20
89.16705312859068
30
0
11
33.349671639189808
21
-0.36698309191311718
31
0.0
40
0.54613373334750592
41
0.0060093207463534602
42
0.086317845624571038
0
SPLINE
5
150
100
AcDbEntity
8
0
100
AcDbSpline
70
0
71
3
72
8
73
4
74
0
42
0.000000001
43
0.0000000001
44
0.0000000001
40
7
40
7
40
7
40
7
40
8
40
8
40
8
40
8
10
-41.866266540091495
20
88.90952605052243
30
0
10
-41.866266540091559
20
83.386348967189079
30
0
10
-46.343512633841598
20
78.909791892536362
30
0
10
-51.866000698077713
20
78.909791892536418
30
0
0
SPLINE
5
151
100
AcDbEntity
8
0
100
AcDbSpline
70
0
71
3
72
8
73
4
74
0
42
0.000000001
43
0.0000000001
44
0.0000000001
40
8
40
8
40
8
40
8
40
9
40
9
40
9
40
9
10
-51.866000698077713
20
78.909791892536418
30
0
10
-57.389177781411014
20
78.909791892536475
30
0
10
-61.866423875160955
20
83.386348967189278
30
0
10
-61.866423875160905
20
88.909526050522629
30
0
0
ELLIPSE
5
152
100
AcDbEntity
8
0
100
AcDbEllipse
10
-5.8171224207367267
20
92.590310730503873
30
0
11
56.01842321354296
21
4.458889640925439
31
0.0
40
0.4171957053406643
41
3.0464565275562396
42
3.1083975502126306
0
LINE
5
153
100
AcDbEntity
8
0
100
AcDbLine
10
-61.758936895994225
20
90.371624574828161
30
0
11
-68.866168883841425
21
90.371624574828232
31
0
0
LINE
5
154
100
AcDbEntity
8
0
100
AcDbLine
10
-68.866168883841425
20
90.371624574828232
30
0
11
-68.866168883841453
21
87.371635425522683
31
0
0
LINE
5
155
100
AcDbEntity
8
0
100
AcDbLine
10
-68.866168883841453
20
87.371635425522683
30
0
11
-73.866380472383156
21
87.37163542552274
31
0
0
LINE
5
156
100
AcDbEntity
8
0
100
AcDbLine
10
-73.866380472383156
20
87.37163542552274
30
0
11
-73.866380472383213
21
80.871429262328292
31
0
0
LINE
5
157
100
AcDbEntity
8
0
100
AcDbLine
10
-73.866380472383213
20
80.871429262328292
30
0
11
-76.866369621688804
21
80.871429262328348
31
0
0
LINE
5
158
100
AcDbEntity
8
0
100
AcDbLine
10
-76.866369621688804
20
80.871429262328348
30
0
11
-76.866369621688904
21
71.37192296892556
31
0
0
LINE
5
159
100
AcDbEntity
8
0
100
AcDbLine
10
-76.866369621688904
20
71.37192296892556
30
0
11
-73.866380472383312
21
71.371922968925517
31
0
0
LINE
5
160
100
AcDbEntity
8
0
100
AcDbLine
10
-73.866380472383312
20
71.371922968925517
30
0
11
-73.866380472383369
21
65.371255651217183
31
0
0
LINE
5
161
100
AcDbEntity
8
0
100
AcDbLine
10
-73.866380472383369
20
65.371255651217183
30
0
11
-76.866369621688946
21
65.371255651217211
31
0
0
LINE
5
162
100
AcDbEntity
8
0
100
AcDbLine
10
-76.866369621688946
20
65.371255651217211
30
0
11
-76.866369621689017
21
59.371277352606107
31
0
0
LINE
5
163
100
AcDbEntity
8
0
100
AcDbLine
10
-76.866369621689017
20
59.371277352606107
30
0
11
-73.86638047238344
21
59.371277352606086
31
0
0
LINE
5
164
100
AcDbEntity
8
0
100
AcDbLine
10
-73.86638047238344
20
59.371277352606086
30
0
11
-73.866380472383497
21
53.371299053994925
31
0
0
LINE
5
165
100
AcDbEntity
8
0
100
AcDbLine
10
-73.866380472383497
20
53.371299053994925
30
0
11
-76.866369621689074
21
53.371299053994939
31
0
0
LINE
5
166
100
AcDbEntity
8
0
100
AcDbLine
10
-76.866369621689074
20
53.371299053994939
30
0
11
-76.866369621689174
21
43.871792760592179
31
0
0
LINE
5
167
100
AcDbEntity
8
0
100
AcDbLine
10
-76.866369621689174
20
43.871792760592179
30
0
11
-73.866380472383582
21
43.87179276059215
31
0
0
LINE
5
168
100
AcDbEntity
8
0
100
AcDbLine
10
-73.866380472383582
20
43.87179276059215
30
0
11
-73.866380472383639
21
37.371586597397709
31
0
0
LINE
5
169
100
AcDbEntity
8
0
100
AcDbLine
10
-73.866380472383639
20
37.371586597397709
30
0
11
-68.866168883841951
21
37.371586597397659
31
0
0
LINE
5
170
100
AcDbEntity
8
0
100
AcDbLine
10
-68.866168883841951
20
37.371586597397659
30
0
11
-68.866168883841979
21
34.37159744809211
31
0
0
LINE
5
171
100
AcDbEntity
8
0
100
AcDbLine
10
-68.866168883841979
20
34.37159744809211
30
0
11
-60.865968145994785
21
34.371597448092032
31
0
0
LINE
5
172
100
AcDbEntity
8
0
100
AcDbLine
10
-60.865968145994785
20
34.371597448092032
30
0
11
-60.865968145994756
21
37.371586597397581
31
0
0
LINE
5
173
100
AcDbEntity
8
0
100
AcDbLine
10
-60.865968145994756
20
37.371586597397581
30
0
11
-54.865989847383645
21
37.371586597397524
31
0
0
LINE
5
174
100
AcDbEntity
8
0
100
AcDbLine
10
-54.865989847383645
20
37.371586597397524
30
0
11
-54.865989847383673
21
34.371597448091975
31
0
0
LINE
5
175
100
AcDbEntity
8
0
100
AcDbLine
10
-54.865989847383673
20
34.371597448091975
30
0
11
-48.866011548772576
21
34.371597448091919
31
0
0
LINE
5
176
100
AcDbEntity
8
0
100
AcDbLine
10
-48.866011548772576
20
34.371597448091919
30
0
11
-48.866011548772541
21
37.371586597397467
31
0
0
LINE
5
177
100
AcDbEntity
8
0
100
AcDbLine
10
-48.866011548772541
20
37.371586597397467
30
0
11
-42.866033250161443
21
37.371586597397403
31
0
0
LINE
5
178
100
AcDbEntity
8
0
100
AcDbLine
10
-42.866033250161443
20
37.371586597397403
30
0
11
-42.866033250161465
21
34.371597448091855
31
0
0
LINE
5
179
100
AcDbEntity
8
0
100
AcDbLine
10
-42.866033250161465
20
34.371597448091855
30
0
11
-34.866177021862917
21
34.371597448091777
31
0
0
LINE
5
180
100
AcDbEntity
8
0
100
AcDbLine
10
-34.866177021862917
20
34.371597448091777
30
0
11
-34.866177021862889
21
37.371586597397325
31
0
0
LINE
5
181
100
AcDbEntity
8
0
100
AcDbLine
10
-34.866177021862889
20
37.371586597397325
30
0
11
-29.866309942869762
21
37.371586597397275
31
0
0
LINE
5
182
100
AcDbEntity
8
0
100
AcDbLine
10
-29.866309942869762
20
37.371586597397275
30
0
11
-29.866309942869691
21
43.871792760591717
31
0
0
LINE
5
183
100
AcDbEntity
8
0
100
AcDbLine
10
-29.866309942869691
20
43.871792760591717
30
0
11
-26.866320793564089
21
43.871792760591688
31
0
0
LINE
5
184
100
AcDbEntity
8
0
100
AcDbLine
10
-26.866320793564089
20
43.871792760591688
30
0
11
-26.866320793563997
21
53.371299053994449
31
0
0
LINE
5
185
100
AcDbEntity
8
0
100
AcDbLine
10
-26.866320793563997
20
53.371299053994449
30
0
11
-29.866309942869592
21
53.37129905399447
31
0
0
LINE
5
186
100
AcDbEntity
8
0
100
AcDbLine
10
-29.866309942869592
20
53.37129905399447
30
0
11
-29.866309942869535
21
59.371277352605638
31
0
0
LINE
5
187
100
AcDbEntity
8
0
100
AcDbLine
10
-29.866309942869535
20
59.371277352605638
30
0
11
-26.866320793563929
21
59.371277352605617
31
0
0
LINE
5
188
100
AcDbEntity
8
0
100
AcDbLine
10
-26.866320793563929
20
59.371277352605617
30
0
11
-26.866320793563872
21
65.371255651216714
31
0
0
LINE
5
189
100
AcDbEntity
8
0
100
AcDbLine
10
-26.866320793563872
20
65.371255651216714
30
0
11
-29.866309942869478
21
65.371255651216728
31
0
0
LINE
5
190
100
AcDbEntity
8
0
100
AcDbLine
10
-29.866309942869478
20
65.371255651216728
30
0
11
-29.866309942869421
21
71.371922968925091
31
0
0
LINE
5
191
100
AcDbEntity
8
0
100
AcDbLine
10
-29.866309942869421
20
71.371922968925091
30
0
11
-26.866320793563816
21
71.371922968925062
31
0
0
LINE
5
192
100
AcDbEntity
8
0
100
AcDbLine
10
-26.866320793563816
20
71.371922968925062
30
0
11
-26.86632079356372
21
80.871773771876406
31
0
0
LINE
5
193
100
AcDbEntity
8
0
100
AcDbLine
10
-26.86632079356372
20
80.871773771876406
30
0
11
-29.866309942869318
21
80.871773771876448
31
0
0
LINE
5
194
100
AcDbEntity
8
0
100
AcDbLine
10
-29.866309942869318
20
80.871773771876448
30
0
11
-29.866309942869258
21
87.371635425522314
31
0
0
LINE
5
195
100
AcDbEntity
8
0
100
AcDbLine
10
-29.866309942869258
20
87.371635425522314
30
0
11
-34.866177021862384
21
87.371635425522371
31
0
0
LINE
5
196
100
AcDbEntity
8
0
100
AcDbLine
10
-34.866177021862384
20
87.371635425522371
30
0
11
-34.866177021862363
21
90.371624574827905
31
0
0
LINE
5
197
100
AcDbEntity
8
0
100
AcDbLine
10
-34.866177021862363
20
90.371624574827905
30
0
11
-41.973753519258096
21
90.37162457482799
31
0
0
ENDSEC
0
SECTION
2
OBJECTS
0
DICTIONARY
5
C
100
AcDbDictionary
3
ACAD_GROUP
350
D
3
ACAD_MLINESTYLE
350
17
0
DICTIONARY
5
D
100
AcDbDictionary
0
DICTIONARY
5
1A
330
C
100
AcDbDictionary
0
DICTIONARY
5
17
100
AcDbDictionary
0
ENDSEC
0
EOF
