0
SECTION
2
HEADER
9
$INSUNITS
70
4
9
$ACADVER
1
AC1014
9
$HANDSEED
5
FFFF
0
ENDSEC
0
SECTION
2
TABLES
0
TABLE
2
VPORT
5
8
100
AcDbSymbolTable
0
ENDTAB
0
TABLE
2
LTYPE
5
5
100
AcDbSymbolTable
0
LTYPE
5
14
100
AcDbSymbolTableRecord
100
AcDbLinetypeTableRecord
2
BYBLOCK
70
0
0
LTYPE
5
15
100
AcDbSymbolTableRecord
100
AcDbLinetypeTableRecord
2
BYLAYER
70
0
0
ENDTAB
0
TABLE
2
LAYER
5
2
100
AcDbSymbolTable
70
2
0
LAYER
5
50
100
AcDbSymbolTableRecord
100
AcDbLayerTableRecord
2
0
70
0
6
CONTINUOUS
0
ENDTAB
0
TABLE
2
STYLE
5
3
100
AcDbSymbolTable
70
1
0
STYLE
5
11
100
AcDbSymbolTableRecord
100
AcDbTextStyleTableRecord
2
STANDARD
70
0
0
ENDTAB
0
TABLE
2
VIEW
5
6
100
AcDbSymbolTable
70
0
0
ENDTAB
0
TABLE
2
UCS
5
7
100
AcDbSymbolTable
70
0
0
ENDTAB
0
TABLE
2
APPID
5
9
100
AcDbSymbolTable
70
2
0
APPID
5
12
100
AcDbSymbolTableRecord
100
AcDbRegAppTableRecord
2
ACAD
70
0
0
ENDTAB
0
TABLE
2
DIMSTYLE
5
A
100
AcDbSymbolTable
70
1
0
ENDTAB
0
TABLE
2
BLOCK_RECORD
5
1
100
AcDbSymbolTable
70
1
0
BLOCK_RECORD
5
1F
100
AcDbSymbolTableRecord
100
AcDbBlockTableRecord
2
*MODEL_SPACE
0
BLOCK_RECORD
5
1B
100
AcDbSymbolTableRecord
100
AcDbBlockTableRecord
2
*PAPER_SPACE
0
ENDTAB
0
ENDSEC
0
SECTION
2
BLOCKS
0
BLOCK
5
20
100
AcDbEntity
100
AcDbBlockBegin
2
*MODEL_SPACE
0
ENDBLK
5
21
100
AcDbEntity
100
AcDbBlockEnd
0
BLOCK
5
1C
100
AcDbEntity
100
AcDbBlockBegin
2
*PAPER_SPACE
0
ENDBLK
5
1D
100
AcDbEntity
100
AcDbBlockEnd
0
ENDSEC
0
SECTION
2
ENTITIES
0
LWPOLYLINE
5
100
100
AcDbEntity
8
0
100
AcDbPolyline
90
76
70
1
43
0.0
10
13.632048170204706
20
-75.706500694453524
10
13.632048170204706
20
-70.706289105911893
10
16.632037319510268
20
-70.706289105911893
10
16.632037319510268
20
-65.70642202691883
10
13.632048170204706
20
-65.70642202691883
10
13.632048170204706
20
-62.706432877613253
10
16.632037319510268
20
-62.706432877613253
10
16.632037319510268
20
-59.706443728307697
10
13.632048170204706
20
-59.706443728307697
10
13.632048170204706
20
-56.70645457900217
10
16.632037319510268
20
-56.70645457900217
10
16.632037319510268
20
-53.706465429696593
10
13.632048170204706
20
-53.706465429696593
10
13.632048170204706
20
-50.706476280391044
10
16.632037319510268
20
-50.706476280391044
10
16.632037319510268
20
-47.706487131085488
10
13.632048170204706
20
-47.706487131085488
10
13.632048170204706
20
-44.706497981779947
10
16.632037319510268
20
-44.706497981779947
10
16.632037319510268
20
-41.706508832474384
10
13.632048170204706
20
-41.706508832474384
10
13.632048170204706
20
-38.706519683168821
10
16.632037319510268
20
-38.706519683168821
10
16.632037319510268
20
-35.706530533863265
10
13.632048170204706
20
-35.706530533863265
10
13.632048170204706
20
-32.706541384557696
10
16.632037319510268
20
-32.706541384557696
10
16.632037319510268
20
-27.706674305564661
10
13.632048170204706
20
-27.706674305564661
10
13.632048170204706
20
-22.70646271702298
10
16.432221781315832
20
-22.70646271702298
10
16.432221781315832
20
-25.70645186632855
10
19.231706373329715
20
-25.70645186632855
10
19.231706373329715
20
-22.70646271702298
10
22.031879984440828
20
-22.70646271702298
10
22.031879984440828
20
-25.70645186632855
10
24.832053595551933
20
-25.70645186632855
10
24.832053595551933
20
-22.70646271702298
10
27.632227206663043
20
-22.70646271702298
10
27.632227206663043
20
-27.706674305564661
10
24.63223805735748
20
-27.706674305564661
10
24.63223805735748
20
-32.706541384557696
10
27.632227206663043
20
-32.706541384557696
10
27.632227206663043
20
-35.706530533863265
10
24.63223805735748
20
-35.706530533863265
10
24.63223805735748
20
-38.706519683168821
10
27.632227206663043
20
-38.706519683168821
10
27.632227206663043
20
-41.706508832474384
10
24.63223805735748
20
-41.706508832474384
10
24.63223805735748
20
-44.706497981779947
10
27.632227206663043
20
-44.706497981779947
10
27.632227206663043
20
-47.706487131085488
10
24.63223805735748
20
-47.706487131085488
10
24.63223805735748
20
-50.706476280391044
10
27.632227206663043
20
-50.706476280391044
10
27.632227206663043
20
-53.706465429696593
10
24.63223805735748
20
-53.706465429696593
10
24.63223805735748
20
-56.70645457900217
10
27.632227206663043
20
-56.70645457900217
10
27.632227206663043
20
-59.706443728307697
10
24.63223805735748
20
-59.706443728307697
10
24.63223805735748
20
-62.706432877613253
10
27.632227206663043
20
-62.706432877613253
10
27.632227206663043
20
-65.70642202691883
10
24.63223805735748
20
-65.70642202691883
10
24.63223805735748
20
-70.706289105911893
10
27.632227206663043
20
-70.706289105911893
10
27.632227206663043
20
-75.706500694453524
10
24.832053595551933
20
-75.706500694453524
10
24.832053595551933
20
-72.706511545147976
10
22.031879984440828
20
-72.706511545147976
10
22.031879984440828
20
-75.706500694453524
10
19.231706373329715
20
-75.706500694453524
10
19.231706373329715
20
-72.706511545147976
10
16.432221781315832
20
-72.706511545147976
10
16.432221781315832
20
-75.706500694453524
0
LWPOLYLINE
5
101
100
AcDbEntity
8
0
100
AcDbPolyline
90
76
70
1
43
0.0
10
13.632048170204706
20
-75.706500694453538
10
13.632048170204706
20
-70.706289105911893
10
16.632037319510268
20
-70.706289105911878
10
16.632037319510268
20
-65.70642202691883
10
13.632048170204706
20
-65.70642202691883
10
13.632048170204706
20
-62.706432877613253
10
16.632037319510268
20
-62.706432877613253
10
16.632037319510268
20
-59.706443728307697
10
13.632048170204706
20
-59.706443728307704
10
13.632048170204706
20
-56.70645457900217
10
16.632037319510268
20
-56.706454579002155
10
16.632037319510268
20
-53.706465429696593
10
13.632048170204706
20
-53.7064654296966
10
13.632048170204706
20
-50.706476280391044
10
16.632037319510268
20
-50.706476280391044
10
16.632037319510268
20
-47.706487131085488
10
13.632048170204706
20
-47.706487131085488
10
13.632048170204706
20
-44.706497981779947
10
16.632037319510268
20
-44.706497981779947
10
16.632037319510268
20
-41.706508832474384
10
13.632048170204706
20
-41.706508832474384
10
13.632048170204706
20
-38.706519683168821
10
16.632037319510268
20
-38.706519683168821
10
16.632037319510268
20
-35.706530533863265
10
13.632048170204706
20
-35.706530533863258
10
13.632048170204706
20
-32.706541384557696
10
16.632037319510268
20
-32.706541384557696
10
16.632037319510268
20
-27.706674305564661
10
13.632048170204706
20
-27.706674305564661
10
13.632048170204706
20
-22.70646271702298
10
16.432221781315832
20
-22.70646271702298
10
16.432221781315828
20
-25.70645186632855
10
19.231706373329715
20
-25.70645186632855
10
19.231706373329718
20
-22.70646271702298
10
22.031879984440828
20
-22.70646271702298
10
22.031879984440828
20
-25.70645186632855
10
24.832053595551933
20
-25.70645186632855
10
24.832053595551933
20
-22.70646271702298
10
27.632227206663043
20
-22.70646271702298
10
27.632227206663043
20
-27.706674305564661
10
24.63223805735748
20
-27.706674305564654
10
24.63223805735748
20
-32.706541384557696
10
27.632227206663043
20
-32.706541384557703
10
27.632227206663043
20
-35.706530533863265
10
24.63223805735748
20
-35.706530533863265
10
24.63223805735748
20
-38.706519683168821
10
27.632227206663043
20
-38.706519683168821
10
27.632227206663043
20
-41.706508832474384
10
24.63223805735748
20
-41.706508832474384
10
24.63223805735748
20
-44.706497981779947
10
27.632227206663043
20
-44.706497981779947
10
27.632227206663043
20
-47.706487131085488
10
24.63223805735748
20
-47.706487131085488
10
24.63223805735748
20
-50.706476280391044
10
27.632227206663043
20
-50.706476280391037
10
27.632227206663043
20
-53.706465429696593
10
24.63223805735748
20
-53.7064654296966
10
24.63223805735748
20
-56.70645457900217
10
27.632227206663043
20
-56.706454579002155
10
27.632227206663043
20
-59.706443728307697
10
24.63223805735748
20
-59.706443728307697
10
24.63223805735748
20
-62.706432877613253
10
27.632227206663043
20
-62.706432877613253
10
27.632227206663043
20
-65.70642202691883
10
24.63223805735748
20
-65.70642202691883
10
24.63223805735748
20
-70.706289105911893
10
27.632227206663043
20
-70.706289105911878
10
27.632227206663043
20
-75.706500694453524
10
24.832053595551933
20
-75.706500694453524
10
24.832053595551933
20
-72.706511545147976
10
22.031879984440828
20
-72.706511545147976
10
22.031879984440824
20
-75.706500694453524
10
19.231706373329715
20
-75.706500694453524
10
19.231706373329718
20
-72.706511545147976
10
16.432221781315832
20
-72.706511545147976
10
16.432221781315832
20
-75.706500694453524
0
ENDSEC
0
SECTION
2
OBJECTS
0
DICTIONARY
5
C
100
AcDbDictionary
3
ACAD_GROUP
350
D
3
ACAD_MLINESTYLE
350
17
0
DICTIONARY
5
D
100
AcDbDictionary
0
DICTIONARY
5
1A
330
C
100
AcDbDictionary
0
DICTIONARY
5
17
100
AcDbDictionary
0
ENDSEC
0
EOF
