0
SECTION
2
HEADER
9
$INSUNITS
70
4
9
$ACADVER
1
AC1014
9
$HANDSEED
5
FFFF
0
ENDSEC
0
SECTION
2
TABLES
0
TABLE
2
VPORT
5
8
100
AcDbSymbolTable
0
ENDTAB
0
TABLE
2
LTYPE
5
5
100
AcDbSymbolTable
0
LTYPE
5
14
100
AcDbSymbolTableRecord
100
AcDbLinetypeTableRecord
2
BYBLOCK
70
0
0
LTYPE
5
15
100
AcDbSymbolTableRecord
100
AcDbLinetypeTableRecord
2
BYLAYER
70
0
0
ENDTAB
0
TABLE
2
LAYER
5
2
100
AcDbSymbolTable
70
2
0
LAYER
5
50
100
AcDbSymbolTableRecord
100
AcDbLayerTableRecord
2
0
70
0
6
CONTINUOUS
0
ENDTAB
0
TABLE
2
STYLE
5
3
100
AcDbSymbolTable
70
1
0
STYLE
5
11
100
AcDbSymbolTableRecord
100
AcDbTextStyleTableRecord
2
STANDARD
70
0
0
ENDTAB
0
TABLE
2
VIEW
5
6
100
AcDbSymbolTable
70
0
0
ENDTAB
0
TABLE
2
UCS
5
7
100
AcDbSymbolTable
70
0
0
ENDTAB
0
TABLE
2
APPID
5
9
100
AcDbSymbolTable
70
2
0
APPID
5
12
100
AcDbSymbolTableRecord
100
AcDbRegAppTableRecord
2
ACAD
70
0
0
ENDTAB
0
TABLE
2
DIMSTYLE
5
A
100
AcDbSymbolTable
70
1
0
ENDTAB
0
TABLE
2
BLOCK_RECORD
5
1
100
AcDbSymbolTable
70
1
0
BLOCK_RECORD
5
1F
100
AcDbSymbolTableRecord
100
AcDbBlockTableRecord
2
*MODEL_SPACE
0
BLOCK_RECORD
5
1B
100
AcDbSymbolTableRecord
100
AcDbBlockTableRecord
2
*PAPER_SPACE
0
ENDTAB
0
ENDSEC
0
SECTION
2
BLOCKS
0
BLOCK
5
20
100
AcDbEntity
100
AcDbBlockBegin
2
*MODEL_SPACE
0
ENDBLK
5
21
100
AcDbEntity
100
AcDbBlockEnd
0
BLOCK
5
1C
100
AcDbEntity
100
AcDbBlockBegin
2
*PAPER_SPACE
0
ENDBLK
5
1D
100
AcDbEntity
100
AcDbBlockEnd
0
ENDSEC
0
SECTION
2
ENTITIES
0
LWPOLYLINE
5
100
100
AcDbEntity
8
0
100
AcDbPolyline
90
76
70
1
43
0.0
10
24.631893547808879
20
60.622326073115374
10
24.631893547808879
20
59.372445430754283
10
27.631882697114438
20
59.372445430754283
10
27.631882697114438
20
55.122575639087614
10
24.631893547808879
20
55.122575639087614
10
24.631893547808879
20
52.122586489782037
10
27.631882697114438
20
52.122586489782037
10
27.631882697114438
20
49.122597340476489
10
24.631893547808879
20
49.122597340476489
10
24.631893547808879
20
46.12260819117094
10
27.631882697114438
20
46.12260819117094
10
27.631882697114438
20
43.121930022768176
10
24.631893547808879
20
43.121930022768176
10
24.631893547808879
20
40.121940873462627
10
27.631882697114438
20
40.121940873462627
10
27.631882697114438
20
37.121951724157057
10
24.631893547808879
20
37.121951724157057
10
24.631893547808879
20
34.121962574851509
10
27.631882697114438
20
34.121962574851509
10
27.631882697114438
20
31.121973425545949
10
24.631893547808879
20
31.121973425545949
10
24.631893547808879
20
28.121984276240401
10
27.631882697114438
20
28.121984276240401
10
27.631882697114438
20
25.121995126934841
10
24.631893547808879
20
25.121995126934841
10
24.631893547808879
20
22.122005977629264
10
27.631882697114438
20
22.122005977629264
10
27.631882697114438
20
17.87213618596261
10
24.631893547808879
20
17.87213618596261
10
24.631893547808879
20
16.622255543601518
10
24.831709086003322
20
16.622255543601518
10
24.831709086003322
20
13.622266394295956
10
22.031879984440824
20
13.622266394295956
10
22.031879984440824
20
16.622255543601518
10
19.231706373329715
20
16.622255543601518
10
19.231706373329715
20
13.622266394295956
10
16.431877271767213
20
13.622266394295956
10
16.431877271767213
20
16.622255543601518
10
16.631692809961663
20
16.622255543601518
10
16.631692809961663
20
17.87213618596261
10
13.631703660656104
20
17.87213618596261
10
13.631703660656104
20
22.122005977629264
10
16.631692809961663
20
22.122005977629264
10
16.631692809961663
20
25.121995126934841
10
13.631703660656104
20
25.121995126934841
10
13.631703660656104
20
28.121984276240401
10
16.631692809961663
20
28.121984276240401
10
16.631692809961663
20
31.121973425545949
10
13.631703660656104
20
31.121973425545949
10
13.631703660656104
20
34.121962574851509
10
16.631692809961663
20
34.121962574851509
10
16.631692809961663
20
37.121951724157057
10
13.631703660656104
20
37.121951724157057
10
13.631703660656104
20
40.121940873462627
10
16.631692809961663
20
40.121940873462627
10
16.631692809961663
20
43.121930022768176
10
13.631703660656104
20
43.121930022768176
10
13.631703660656104
20
46.12260819117094
10
16.631692809961663
20
46.12260819117094
10
16.631692809961663
20
49.122597340476489
10
13.631703660656104
20
49.122597340476489
10
13.631703660656104
20
52.122586489782037
10
16.631692809961663
20
52.122586489782037
10
16.631692809961663
20
55.122575639087614
10
13.631703660656104
20
55.122575639087614
10
13.631703660656104
20
59.372445430754283
10
16.631692809961663
20
59.372445430754283
10
16.631692809961663
20
60.622326073115374
10
16.431877271767213
20
60.622326073115374
10
16.431877271767213
20
63.622315222420944
10
19.231706373329715
20
63.622315222420944
10
19.231706373329715
20
60.622326073115374
10
22.031879984440824
20
60.622326073115374
10
22.031879984440824
20
63.622315222420944
10
24.831709086003322
20
63.622315222420944
10
24.831709086003322
20
60.622326073115374
0
LWPOLYLINE
5
101
100
AcDbEntity
8
0
100
AcDbPolyline
90
76
70
1
43
0.0
10
24.631893547808879
20
60.622326073115367
10
24.631893547808879
20
59.372445430754283
10
27.631882697114438
20
59.372445430754283
10
27.631882697114438
20
55.122575639087614
10
24.631893547808879
20
55.122575639087614
10
24.631893547808879
20
52.122586489782037
10
27.631882697114438
20
52.122586489782037
10
27.631882697114438
20
49.122597340476489
10
24.631893547808879
20
49.122597340476489
10
24.631893547808879
20
46.12260819117094
10
27.631882697114438
20
46.122608191170954
10
27.631882697114438
20
43.121930022768176
10
24.631893547808879
20
43.121930022768176
10
24.631893547808879
20
40.121940873462627
10
27.631882697114438
20
40.121940873462627
10
27.631882697114438
20
37.121951724157057
10
24.631893547808879
20
37.121951724157057
10
24.631893547808879
20
34.121962574851509
10
27.631882697114438
20
34.121962574851509
10
27.631882697114438
20
31.121973425545949
10
24.631893547808879
20
31.121973425545949
10
24.631893547808879
20
28.121984276240401
10
27.631882697114438
20
28.121984276240401
10
27.631882697114438
20
25.121995126934841
10
24.631893547808879
20
25.121995126934841
10
24.631893547808879
20
22.122005977629264
10
27.631882697114438
20
22.122005977629264
10
27.631882697114438
20
17.87213618596261
10
24.631893547808879
20
17.87213618596261
10
24.631893547808879
20
16.622255543601518
10
24.831709086003322
20
16.622255543601518
10
24.831709086003322
20
13.622266394295956
10
22.031879984440824
20
13.622266394295956
10
22.031879984440824
20
16.622255543601518
10
19.231706373329715
20
16.622255543601518
10
19.231706373329715
20
13.622266394295956
10
16.431877271767213
20
13.622266394295956
10
16.431877271767217
20
16.622255543601518
10
16.631692809961663
20
16.622255543601518
10
16.63169280996166
20
17.87213618596261
10
13.631703660656104
20
17.87213618596261
10
13.631703660656108
20
22.122005977629264
10
16.631692809961663
20
22.122005977629264
10
16.63169280996166
20
25.121995126934841
10
13.631703660656104
20
25.121995126934841
10
13.631703660656108
20
28.121984276240401
10
16.631692809961663
20
28.121984276240401
10
16.63169280996166
20
31.121973425545949
10
13.631703660656104
20
31.121973425545949
10
13.631703660656108
20
34.121962574851509
10
16.631692809961663
20
34.121962574851509
10
16.63169280996166
20
37.121951724157057
10
13.631703660656104
20
37.121951724157064
10
13.631703660656108
20
40.121940873462627
10
16.631692809961663
20
40.121940873462627
10
16.63169280996166
20
43.121930022768176
10
13.631703660656104
20
43.121930022768176
10
13.631703660656108
20
46.12260819117094
10
16.631692809961663
20
46.12260819117094
10
16.63169280996166
20
49.122597340476489
10
13.631703660656104
20
49.122597340476489
10
13.631703660656108
20
52.122586489782037
10
16.631692809961663
20
52.122586489782037
10
16.63169280996166
20
55.122575639087614
10
13.631703660656104
20
55.122575639087614
10
13.631703660656108
20
59.372445430754283
10
16.631692809961663
20
59.37244543075429
10
16.63169280996166
20
60.622326073115374
10
16.431877271767213
20
60.622326073115367
10
16.431877271767213
20
63.622315222420944
10
19.231706373329715
20
63.622315222420951
10
19.231706373329715
20
60.622326073115374
10
22.031879984440824
20
60.622326073115367
10
22.031879984440824
20
63.622315222420944
10
24.831709086003322
20
63.622315222420951
10
24.831709086003322
20
60.622326073115374
0
ENDSEC
0
SECTION
2
OBJECTS
0
DICTIONARY
5
C
100
AcDbDictionary
3
ACAD_GROUP
350
D
3
ACAD_MLINESTYLE
350
17
0
DICTIONARY
5
D
100
AcDbDictionary
0
DICTIONARY
5
1A
330
C
100
AcDbDictionary
0
DICTIONARY
5
17
100
AcDbDictionary
0
ENDSEC
0
EOF
