0
SECTION
2
HEADER
9
$INSUNITS
70
4
9
$ACADVER
1
AC1014
9
$HANDSEED
5
FFFF
0
ENDSEC
0
SECTION
2
TABLES
0
TABLE
2
VPORT
5
8
100
AcDbSymbolTable
0
ENDTAB
0
TABLE
2
LTYPE
5
5
100
AcDbSymbolTable
0
LTYPE
5
14
100
AcDbSymbolTableRecord
100
AcDbLinetypeTableRecord
2
BYBLOCK
70
0
0
LTYPE
5
15
100
AcDbSymbolTableRecord
100
AcDbLinetypeTableRecord
2
BYLAYER
70
0
0
ENDTAB
0
TABLE
2
LAYER
5
2
100
AcDbSymbolTable
70
2
0
LAYER
5
50
100
AcDbSymbolTableRecord
100
AcDbLayerTableRecord
2
0
70
0
6
CONTINUOUS
0
ENDTAB
0
TABLE
2
STYLE
5
3
100
AcDbSymbolTable
70
1
0
STYLE
5
11
100
AcDbSymbolTableRecord
100
AcDbTextStyleTableRecord
2
STANDARD
70
0
0
ENDTAB
0
TABLE
2
VIEW
5
6
100
AcDbSymbolTable
70
0
0
ENDTAB
0
TABLE
2
UCS
5
7
100
AcDbSymbolTable
70
0
0
ENDTAB
0
TABLE
2
APPID
5
9
100
AcDbSymbolTable
70
2
0
APPID
5
12
100
AcDbSymbolTableRecord
100
AcDbRegAppTableRecord
2
ACAD
70
0
0
ENDTAB
0
TABLE
2
DIMSTYLE
5
A
100
AcDbSymbolTable
70
1
0
ENDTAB
0
TABLE
2
BLOCK_RECORD
5
1
100
AcDbSymbolTable
70
1
0
BLOCK_RECORD
5
1F
100
AcDbSymbolTableRecord
100
AcDbBlockTableRecord
2
*MODEL_SPACE
0
BLOCK_RECORD
5
1B
100
AcDbSymbolTableRecord
100
AcDbBlockTableRecord
2
*PAPER_SPACE
0
ENDTAB
0
ENDSEC
0
SECTION
2
BLOCKS
0
BLOCK
5
20
100
AcDbEntity
100
AcDbBlockBegin
2
*MODEL_SPACE
0
ENDBLK
5
21
100
AcDbEntity
100
AcDbBlockEnd
0
BLOCK
5
1C
100
AcDbEntity
100
AcDbBlockBegin
2
*PAPER_SPACE
0
ENDBLK
5
1D
100
AcDbEntity
100
AcDbBlockEnd
0
ENDSEC
0
SECTION
2
ENTITIES
0
LWPOLYLINE
5
100
100
AcDbEntity
8
0
100
AcDbPolyline
90
116
70
1
43
0.0
10
27.706158559878133
20
16.622588724248551
10
22.706291480885081
20
16.622588724248544
10
22.706291480885081
20
17.872469366609636
10
25.706280630190644
20
17.872469366609639
10
25.706280630190644
20
22.12233915827629
10
22.706291480885081
20
22.12233915827629
10
22.706291480885081
20
25.122672817130479
10
25.706280630190644
20
25.122672817130479
10
25.706280630190644
20
28.122661966436038
10
22.706291480885081
20
28.122661966436038
10
22.706291480885081
20
31.122651115741586
10
25.706280630190644
20
31.122651115741586
10
25.706280630190644
20
34.122640265047139
10
22.706291480885081
20
34.122640265047139
10
22.706291480885081
20
37.122629414352701
10
25.706280630190644
20
37.122629414352701
10
25.706280630190644
20
40.12261856365825
10
22.706291480885081
20
40.12261856365825
10
22.706291480885081
20
43.122607712963806
10
25.706280630190644
20
43.122607712963806
10
25.706280630190644
20
46.122596862269354
10
22.706291480885081
20
46.122596862269354
10
22.706291480885081
20
49.122586011574903
10
25.706280630190644
20
49.122586011574903
10
25.706280630190644
20
52.122575160880473
10
22.706291480885081
20
52.122575160880473
10
22.706291480885081
20
55.122564310186021
10
25.706280630190644
20
55.122564310186021
10
25.706280630190644
20
59.372434101852704
10
22.706291480885081
20
59.37243410185269
10
22.706291480885081
20
60.62231474421381
10
27.706158559878133
20
60.622314744213817
10
27.706158559878133
20
63.622303893519366
10
32.706197893645495
20
63.622303893519366
10
32.706197893645495
20
60.622314744213817
10
35.706187042951044
20
60.622314744213817
10
35.706187042951044
20
63.622303893519366
10
38.706176192256621
20
63.622303893519366
10
38.706176192256621
20
60.622314744213817
10
41.706165341562176
20
60.622314744213817
10
41.706165341562176
20
63.622303893519366
10
44.706154490867711
20
63.622303893519366
10
44.706154490867711
20
60.622314744213817
10
47.706143640173266
20
60.622314744213817
10
47.706143640173266
20
63.622303893519366
10
50.706132789478829
20
63.622303893519366
10
50.706132789478829
20
60.622314744213817
10
53.706121938784392
20
60.622314744213817
10
53.706121938784392
20
63.622303893519366
10
56.706111088089926
20
63.622303893519366
10
56.706111088089926
20
60.622314744213817
10
59.706100237395489
20
60.622314744213817
10
59.706100237395489
20
63.622303893519366
10
62.706089386701045
20
63.622303893519366
10
62.706089386701045
20
60.622314744213817
10
65.706078536006615
20
60.622314744213817
10
65.706078536006615
20
63.622303893519366
10
70.706290124548275
20
63.622303893519366
10
70.706290124548275
20
60.622314744213817
10
75.706501713089921
20
60.622314744213817
10
75.706501713089921
20
59.372434101852704
10
72.706512563784401
20
59.372434101852704
10
72.706512563784401
20
55.122564310186029
10
75.706501713089921
20
55.122564310186029
10
75.706501713089921
20
52.12257516088048
10
72.706512563784401
20
52.12257516088048
10
72.706512563784401
20
49.12258601157491
10
75.706501713089921
20
49.12258601157491
10
75.706501713089921
20
46.122596862269361
10
72.706512563784401
20
46.122596862269361
10
72.706512563784401
20
43.122607712963813
10
75.706501713089921
20
43.122607712963813
10
75.706501713089921
20
40.12261856365825
10
72.706512563784401
20
40.12261856365825
10
72.706512563784401
20
37.122629414352708
10
75.706501713089921
20
37.122629414352708
10
75.706501713089921
20
34.122640265047146
10
72.706512563784401
20
34.122640265047139
10
72.706512563784401
20
31.122651115741597
10
75.706501713089921
20
31.122651115741597
10
75.706501713089921
20
28.122661966436048
10
72.706512563784401
20
28.122661966436048
10
72.706512563784401
20
25.122672817130479
10
75.706501713089921
20
25.122672817130479
10
75.706501713089921
20
22.12233915827629
10
72.706512563784401
20
22.12233915827629
10
72.706512563784401
20
17.872469366609639
10
75.706501713089921
20
17.872469366609639
10
75.706501713089921
20
16.622588724248551
10
70.706290124548275
20
16.622588724248551
10
70.706290124548275
20
13.622599574942988
10
65.706078536006615
20
13.622599574942988
10
65.706078536006615
20
16.622588724248551
10
62.706089386701052
20
16.622588724248551
10
62.706089386701052
20
13.622599574942988
10
59.706100237395489
20
13.622599574942988
10
59.706100237395489
20
16.622588724248551
10
56.706111088089926
20
16.622588724248551
10
56.706111088089926
20
13.622599574942988
10
53.706121938784392
20
13.622599574942988
10
53.706121938784392
20
16.622588724248551
10
50.706132789478829
20
16.622588724248551
10
50.706132789478829
20
13.622599574942988
10
47.706143640173273
20
13.622599574942988
10
47.706143640173273
20
16.622588724248551
10
44.706154490867711
20
16.622588724248551
10
44.706154490867711
20
13.622599574942988
10
41.706165341562183
20
13.622599574942988
10
41.706165341562183
20
16.622588724248551
10
38.706176192256621
20
16.622588724248551
10
38.706176192256621
20
13.622599574942988
10
35.706187042951044
20
13.622599574942988
10
35.706187042951044
20
16.622588724248551
10
32.706197893645495
20
16.622588724248551
10
32.706197893645495
20
13.622599574942988
10
27.706158559878133
20
13.622599574942988
0
LWPOLYLINE
5
101
100
AcDbEntity
8
0
100
AcDbPolyline
90
116
70
1
43
0.0
10
27.706158559878133
20
16.622588724248544
10
22.706291480885081
20
16.622588724248544
10
22.706291480885081
20
17.872469366609639
10
25.706280630190644
20
17.872469366609639
10
25.706280630190644
20
22.12233915827629
10
22.706291480885081
20
22.12233915827629
10
22.706291480885081
20
25.122672817130479
10
25.706280630190644
20
25.122672817130475
10
25.706280630190644
20
28.122661966436038
10
22.706291480885081
20
28.122661966436038
10
22.706291480885081
20
31.122651115741586
10
25.706280630190644
20
31.122651115741586
10
25.706280630190644
20
34.122640265047139
10
22.706291480885081
20
34.122640265047139
10
22.706291480885081
20
37.122629414352701
10
25.706280630190644
20
37.122629414352701
10
25.706280630190644
20
40.12261856365825
10
22.706291480885081
20
40.122618563658243
10
22.706291480885081
20
43.122607712963806
10
25.706280630190644
20
43.122607712963806
10
25.706280630190644
20
46.122596862269354
10
22.706291480885081
20
46.122596862269354
10
22.706291480885081
20
49.122586011574903
10
25.706280630190644
20
49.122586011574903
10
25.706280630190644
20
52.122575160880473
10
22.706291480885081
20
52.122575160880473
10
22.706291480885081
20
55.122564310186021
10
25.706280630190644
20
55.122564310186021
10
25.706280630190644
20
59.37243410185269
10
22.706291480885081
20
59.37243410185269
10
22.706291480885081
20
60.622314744213817
10
27.706158559878133
20
60.622314744213817
10
27.706158559878133
20
63.622303893519366
10
32.706197893645495
20
63.622303893519366
10
32.706197893645495
20
60.622314744213817
10
35.706187042951044
20
60.622314744213817
10
35.706187042951044
20
63.622303893519366
10
38.706176192256621
20
63.622303893519366
10
38.706176192256613
20
60.622314744213817
10
41.706165341562176
20
60.622314744213817
10
41.706165341562176
20
63.622303893519366
10
44.706154490867711
20
63.622303893519366
10
44.706154490867704
20
60.622314744213817
10
47.706143640173266
20
60.622314744213817
10
47.706143640173266
20
63.622303893519366
10
50.706132789478829
20
63.622303893519366
10
50.706132789478829
20
60.622314744213817
10
53.706121938784392
20
60.622314744213817
10
53.706121938784392
20
63.622303893519366
10
56.706111088089926
20
63.622303893519366
10
56.706111088089926
20
60.622314744213817
10
59.706100237395489
20
60.622314744213817
10
59.706100237395475
20
63.622303893519366
10
62.706089386701045
20
63.622303893519366
10
62.706089386701045
20
60.622314744213817
10
65.706078536006615
20
60.622314744213817
10
65.706078536006615
20
63.622303893519366
10
70.706290124548275
20
63.622303893519366
10
70.706290124548275
20
60.622314744213817
10
75.706501713089921
20
60.622314744213817
10
75.706501713089921
20
59.372434101852704
10
72.706512563784401
20
59.372434101852711
10
72.706512563784401
20
55.122564310186029
10
75.706501713089921
20
55.122564310186029
10
75.706501713089921
20
52.12257516088048
10
72.706512563784401
20
52.12257516088048
10
72.706512563784401
20
49.12258601157491
10
75.706501713089921
20
49.12258601157491
10
75.706501713089921
20
46.122596862269361
10
72.706512563784401
20
46.122596862269361
10
72.706512563784401
20
43.122607712963813
10
75.706501713089921
20
43.122607712963813
10
75.706501713089921
20
40.12261856365825
10
72.706512563784401
20
40.12261856365825
10
72.706512563784401
20
37.122629414352708
10
75.706501713089921
20
37.122629414352708
10
75.706501713089921
20
34.122640265047139
10
72.706512563784401
20
34.122640265047146
10
72.706512563784401
20
31.122651115741597
10
75.706501713089921
20
31.122651115741597
10
75.706501713089921
20
28.122661966436048
10
72.706512563784401
20
28.122661966436041
10
72.706512563784401
20
25.122672817130479
10
75.706501713089921
20
25.122672817130479
10
75.706501713089921
20
22.12233915827629
10
72.706512563784401
20
22.12233915827629
10
72.706512563784401
20
17.872469366609639
10
75.706501713089921
20
17.872469366609639
10
75.706501713089921
20
16.622588724248551
10
70.706290124548275
20
16.622588724248551
10
70.706290124548275
20
13.622599574942988
10
65.706078536006615
20
13.622599574942988
10
65.706078536006615
20
16.622588724248551
10
62.706089386701052
20
16.622588724248551
10
62.706089386701045
20
13.622599574942988
10
59.706100237395489
20
13.622599574942988
10
59.706100237395489
20
16.622588724248551
10
56.706111088089926
20
16.622588724248551
10
56.706111088089926
20
13.622599574942988
10
53.706121938784392
20
13.622599574942988
10
53.706121938784392
20
16.622588724248551
10
50.706132789478829
20
16.622588724248551
10
50.706132789478843
20
13.622599574942988
10
47.706143640173273
20
13.622599574942988
10
47.706143640173266
20
16.622588724248551
10
44.706154490867711
20
16.622588724248551
10
44.706154490867718
20
13.622599574942988
10
41.706165341562183
20
13.622599574942988
10
41.706165341562183
20
16.622588724248551
10
38.706176192256621
20
16.622588724248551
10
38.706176192256621
20
13.622599574942988
10
35.706187042951044
20
13.622599574942988
10
35.706187042951044
20
16.622588724248551
10
32.706197893645495
20
16.622588724248551
10
32.706197893645495
20
13.622599574942988
10
27.706158559878133
20
13.622599574942988
0
ENDSEC
0
SECTION
2
OBJECTS
0
DICTIONARY
5
C
100
AcDbDictionary
3
ACAD_GROUP
350
D
3
ACAD_MLINESTYLE
350
17
0
DICTIONARY
5
D
100
AcDbDictionary
0
DICTIONARY
5
1A
330
C
100
AcDbDictionary
0
DICTIONARY
5
17
100
AcDbDictionary
0
ENDSEC
0
EOF
