0
SECTION
2
HEADER
9
$INSUNITS
70
4
9
$ACADVER
1
AC1014
9
$HANDSEED
5
FFFF
0
ENDSEC
0
SECTION
2
TABLES
0
TABLE
2
VPORT
5
8
100
AcDbSymbolTable
0
ENDTAB
0
TABLE
2
LTYPE
5
5
100
AcDbSymbolTable
0
LTYPE
5
14
100
AcDbSymbolTableRecord
100
AcDbLinetypeTableRecord
2
BYBLOCK
70
0
0
LTYPE
5
15
100
AcDbSymbolTableRecord
100
AcDbLinetypeTableRecord
2
BYLAYER
70
0
0
ENDTAB
0
TABLE
2
LAYER
5
2
100
AcDbSymbolTable
70
2
0
LAYER
5
50
100
AcDbSymbolTableRecord
100
AcDbLayerTableRecord
2
0
70
0
6
CONTINUOUS
0
ENDTAB
0
TABLE
2
STYLE
5
3
100
AcDbSymbolTable
70
1
0
STYLE
5
11
100
AcDbSymbolTableRecord
100
AcDbTextStyleTableRecord
2
STANDARD
70
0
0
ENDTAB
0
TABLE
2
VIEW
5
6
100
AcDbSymbolTable
70
0
0
ENDTAB
0
TABLE
2
UCS
5
7
100
AcDbSymbolTable
70
0
0
ENDTAB
0
TABLE
2
APPID
5
9
100
AcDbSymbolTable
70
2
0
APPID
5
12
100
AcDbSymbolTableRecord
100
AcDbRegAppTableRecord
2
ACAD
70
0
0
ENDTAB
0
TABLE
2
DIMSTYLE
5
A
100
AcDbSymbolTable
70
1
0
ENDTAB
0
TABLE
2
BLOCK_RECORD
5
1
100
AcDbSymbolTable
70
1
0
BLOCK_RECORD
5
1F
100
AcDbSymbolTableRecord
100
AcDbBlockTableRecord
2
*MODEL_SPACE
0
BLOCK_RECORD
5
1B
100
AcDbSymbolTableRecord
100
AcDbBlockTableRecord
2
*PAPER_SPACE
0
ENDTAB
0
ENDSEC
0
SECTION
2
BLOCKS
0
BLOCK
5
20
100
AcDbEntity
100
AcDbBlockBegin
2
*MODEL_SPACE
0
ENDBLK
5
21
100
AcDbEntity
100
AcDbBlockEnd
0
BLOCK
5
1C
100
AcDbEntity
100
AcDbBlockBegin
2
*PAPER_SPACE
0
ENDBLK
5
1D
100
AcDbEntity
100
AcDbBlockEnd
0
ENDSEC
0
SECTION
2
ENTITIES
0
LWPOLYLINE
5
100
100
AcDbEntity
8
0
100
AcDbPolyline
90
56
70
1
43
0.0
10
27.631884253796532
20
13.622265657449129
10
27.631884253796532
20
17.87213544911581
10
24.631895104490983
20
17.87213544911581
10
24.631895104490983
20
16.622254806754697
10
24.831710642685412
20
16.622254806754697
10
24.831710642685412
20
13.622265657449129
10
22.031537031574288
20
13.622265657449129
10
22.031537031574288
20
16.622254806754697
10
19.231363420463193
20
16.622254806754697
10
19.231363420463193
20
13.622265657449129
10
16.431878828449289
20
13.622265657449129
10
16.431878828449289
20
16.622254806754697
10
16.631694366643742
20
16.622254806754697
10
16.631694366643742
20
17.87213544911581
10
13.631705217338194
20
17.87213544911581
10
13.631705217338194
20
22.122005240782478
10
16.631694366643742
20
22.122005240782478
10
16.631694366643742
20
25.122683409185246
10
13.631705217338194
20
25.122683409185246
10
13.631705217338194
20
28.122672558490809
10
16.631694366643742
20
28.122672558490809
10
16.631694366643742
20
31.122661707796357
10
13.631705217338194
20
31.122661707796357
10
13.631705217338194
20
34.122650857101902
10
16.631694366643742
20
34.122650857101902
10
16.631694366643742
20
37.122640006407465
10
13.631705217338194
20
37.122640006407465
10
13.631705217338194
20
40.122629155713021
10
16.631694366643742
20
40.122629155713021
10
16.631694366643742
20
43.122618305018577
10
13.631705217338194
20
43.122618305018577
10
13.631705217338194
20
46.122607454324125
10
16.631694366643742
20
46.122607454324125
10
16.631694366643742
20
49.122596603629674
10
13.631705217338194
20
49.122596603629674
10
13.631705217338194
20
52.122585752935244
10
16.631694366643742
20
52.122585752935244
10
16.631694366643742
20
55.122574902240792
10
13.631705217338194
20
55.122574902240792
10
13.631705217338194
20
59.372444693907468
10
16.631694366643742
20
59.372444693907468
10
16.631694366643742
20
60.622325336268581
10
16.431878828449289
20
60.622325336268581
10
16.431878828449289
20
63.62231448557413
10
19.231363420463193
20
63.62231448557413
10
19.231363420463193
20
60.622325336268581
10
22.031537031574288
20
60.622325336268581
10
22.031537031574288
20
63.62231448557413
10
24.831710642685412
20
63.62231448557413
10
24.831710642685412
20
60.622325336268581
10
24.631895104490983
20
60.622325336268581
10
24.631895104490983
20
59.372444693907468
10
27.631884253796532
20
59.372444693907468
10
27.631884253796532
20
63.62231448557413
10
63.631754045463197
20
63.622314485574137
10
63.631754045463197
20
13.622265657449129
0
LWPOLYLINE
5
101
100
AcDbEntity
8
0
100
AcDbPolyline
90
4
70
1
43
0.0
10
27.631884253796532
20
49.122596603629674
10
24.631895104490983
20
49.122596603629674
10
24.631895104490983
20
46.122607454324125
10
27.631884253796532
20
46.122607454324125
0
LWPOLYLINE
5
102
100
AcDbEntity
8
0
100
AcDbPolyline
90
4
70
1
43
0.0
10
27.631884253796532
20
37.122640006407465
10
24.631895104490983
20
37.122640006407465
10
24.631895104490983
20
34.122650857101902
10
27.631884253796532
20
34.122650857101902
0
LWPOLYLINE
5
103
100
AcDbEntity
8
0
100
AcDbPolyline
90
4
70
1
43
0.0
10
27.631884253796532
20
25.122683409185246
10
24.631895104490983
20
25.122683409185246
10
24.631895104490983
20
22.122005240782478
10
27.631884253796532
20
22.122005240782478
0
LWPOLYLINE
5
104
100
AcDbEntity
8
0
100
AcDbPolyline
90
4
70
1
43
0.0
10
27.631884253796532
20
31.122661707796357
10
24.631895104490983
20
31.122661707796357
10
24.631895104490983
20
28.122672558490809
10
27.631884253796532
20
28.122672558490809
0
LWPOLYLINE
5
105
100
AcDbEntity
8
0
100
AcDbPolyline
90
4
70
1
43
0.0
10
27.631884253796532
20
43.122618305018577
10
24.631895104490983
20
43.122618305018577
10
24.631895104490983
20
40.122629155713021
10
27.631884253796532
20
40.122629155713021
0
LWPOLYLINE
5
106
100
AcDbEntity
8
0
100
AcDbPolyline
90
4
70
1
43
0.0
10
27.631884253796532
20
55.122574902240792
10
24.631895104490983
20
55.122574902240792
10
24.631895104490983
20
52.122585752935244
10
27.631884253796532
20
52.122585752935244
0
LWPOLYLINE
5
107
100
AcDbEntity
8
0
100
AcDbPolyline
90
56
70
1
43
0.0
10
27.631884253796532
20
13.622265657449129
10
27.631884253796532
20
17.87213544911581
10
24.631895104490983
20
17.87213544911581
10
24.631895104490983
20
16.622254806754697
10
24.831710642685412
20
16.622254806754697
10
24.831710642685412
20
13.622265657449129
10
22.031537031574288
20
13.622265657449129
10
22.031537031574288
20
16.622254806754697
10
19.231363420463193
20
16.622254806754697
10
19.231363420463193
20
13.622265657449129
10
16.431878828449289
20
13.622265657449129
10
16.431878828449289
20
16.622254806754697
10
16.631694366643742
20
16.622254806754697
10
16.631694366643742
20
17.87213544911581
10
13.631705217338194
20
17.87213544911581
10
13.631705217338194
20
22.122005240782478
10
16.631694366643742
20
22.122005240782478
10
16.631694366643742
20
25.122683409185246
10
13.631705217338194
20
25.122683409185246
10
13.631705217338194
20
28.122672558490809
10
16.631694366643742
20
28.122672558490809
10
16.631694366643742
20
31.122661707796357
10
13.631705217338194
20
31.122661707796357
10
13.631705217338194
20
34.122650857101902
10
16.631694366643742
20
34.122650857101902
10
16.631694366643742
20
37.122640006407465
10
13.631705217338194
20
37.122640006407472
10
13.631705217338194
20
40.122629155713021
10
16.631694366643742
20
40.122629155713014
10
16.631694366643742
20
43.122618305018577
10
13.631705217338194
20
43.122618305018577
10
13.631705217338194
20
46.122607454324125
10
16.631694366643742
20
46.122607454324125
10
16.631694366643742
20
49.122596603629674
10
13.631705217338194
20
49.122596603629688
10
13.631705217338194
20
52.122585752935244
10
16.631694366643742
20
52.122585752935244
10
16.631694366643742
20
55.122574902240792
10
13.631705217338194
20
55.122574902240785
10
13.631705217338194
20
59.372444693907468
10
16.631694366643742
20
59.372444693907468
10
16.631694366643742
20
60.622325336268581
10
16.431878828449289
20
60.622325336268581
10
16.431878828449289
20
63.62231448557413
10
19.231363420463193
20
63.62231448557413
10
19.231363420463193
20
60.622325336268581
10
22.031537031574288
20
60.622325336268581
10
22.031537031574288
20
63.62231448557413
10
24.831710642685412
20
63.62231448557413
10
24.831710642685412
20
60.622325336268581
10
24.631895104490983
20
60.622325336268581
10
24.631895104490983
20
59.372444693907468
10
27.631884253796532
20
59.372444693907468
10
27.631884253796532
20
63.62231448557413
10
63.631754045463197
20
63.622314485574137
10
63.631754045463197
20
13.622265657449129
0
LWPOLYLINE
5
108
100
AcDbEntity
8
0
100
AcDbPolyline
90
4
70
1
43
0.0
10
27.631884253796532
20
49.122596603629674
10
24.631895104490983
20
49.122596603629674
10
24.631895104490983
20
46.122607454324125
10
27.631884253796532
20
46.122607454324125
0
LWPOLYLINE
5
109
100
AcDbEntity
8
0
100
AcDbPolyline
90
4
70
1
43
0.0
10
27.631884253796532
20
37.122640006407465
10
24.631895104490983
20
37.122640006407465
10
24.631895104490983
20
34.122650857101902
10
27.631884253796532
20
34.122650857101902
0
LWPOLYLINE
5
110
100
AcDbEntity
8
0
100
AcDbPolyline
90
4
70
1
43
0.0
10
27.631884253796532
20
25.122683409185246
10
24.631895104490983
20
25.122683409185246
10
24.631895104490983
20
22.122005240782478
10
27.631884253796532
20
22.122005240782478
0
LWPOLYLINE
5
111
100
AcDbEntity
8
0
100
AcDbPolyline
90
4
70
1
43
0.0
10
27.631884253796532
20
31.122661707796357
10
24.631895104490983
20
31.122661707796357
10
24.631895104490983
20
28.122672558490809
10
27.631884253796532
20
28.122672558490809
0
LWPOLYLINE
5
112
100
AcDbEntity
8
0
100
AcDbPolyline
90
4
70
1
43
0.0
10
27.631884253796532
20
43.122618305018577
10
24.631895104490983
20
43.122618305018577
10
24.631895104490983
20
40.122629155713021
10
27.631884253796532
20
40.122629155713014
0
LWPOLYLINE
5
113
100
AcDbEntity
8
0
100
AcDbPolyline
90
4
70
1
43
0.0
10
27.631884253796532
20
55.122574902240792
10
24.631895104490983
20
55.122574902240792
10
24.631895104490983
20
52.122585752935244
10
27.631884253796532
20
52.122585752935244
0
ENDSEC
0
SECTION
2
OBJECTS
0
DICTIONARY
5
C
100
AcDbDictionary
3
ACAD_GROUP
350
D
3
ACAD_MLINESTYLE
350
17
0
DICTIONARY
5
D
100
AcDbDictionary
0
DICTIONARY
5
1A
330
C
100
AcDbDictionary
0
DICTIONARY
5
17
100
AcDbDictionary
0
ENDSEC
0
EOF
